<?xml version="1.0" encoding="us-ascii" standalone="no"?><svg xmlns="http://www.w3.org/2000/svg" xmlns:xlink="http://www.w3.org/1999/xlink" contentStyleType="text/css" height="274px" preserveAspectRatio="none" style="width:421px;height:274px;background:#FFFFFF;" version="1.1" viewBox="0 0 421 274" width="421px" zoomAndPan="magnify"><defs/><g><g id="elem_A"><rect fill="#F1F1F1" height="39.0679" style="stroke:#181818;stroke-width:0.5;" width="23" x="7" y="155"/><text fill="#000000" font-family="sans-serif" font-size="14" lengthAdjust="spacing" textLength="9" x="14" y="171.9659">A</text><line style="stroke:#181818;stroke-width:0.5;" x1="8" x2="29" y1="178.0679" y2="178.0679"/></g><g id="elem_wA"><rect fill="#F1F1F1" height="39.0679" style="stroke:#181818;stroke-width:0.5;" width="90" x="241" y="155"/><text fill="#000000" font-family="sans-serif" font-size="14" lengthAdjust="spacing" textLength="76" x="248" y="171.9659">Wrapper(A)</text><line style="stroke:#181818;stroke-width:0.5;" x1="242" x2="330" y1="178.0679" y2="178.0679"/></g><g id="elem_bA"><rect fill="#F1F1F1" height="39.0679" style="stroke:#181818;stroke-width:0.5;" width="76" x="97" y="229"/><text fill="#000000" font-family="sans-serif" font-size="14" lengthAdjust="spacing" textLength="62" x="104" y="245.9659">Bridge(A)</text><line style="stroke:#181818;stroke-width:0.5;" x1="98" x2="172" y1="252.0679" y2="252.0679"/></g><g id="elem_ihA"><rect fill="#F1F1F1" height="39.0679" style="stroke:#181818;stroke-width:0.5;" width="46" x="112" y="155"/><text fill="#000000" font-family="sans-serif" font-size="14" lengthAdjust="spacing" textLength="32" x="119" y="171.9659">IH(A)</text><line style="stroke:#181818;stroke-width:0.5;" x1="113" x2="157" y1="178.0679" y2="178.0679"/></g><g id="elem_B"><rect fill="#F1F1F1" height="39.0679" style="stroke:#181818;stroke-width:0.5;" width="23" x="392" y="81"/><text fill="#000000" font-family="sans-serif" font-size="14" lengthAdjust="spacing" textLength="9" x="399" y="97.9659">B</text><line style="stroke:#181818;stroke-width:0.5;" x1="393" x2="414" y1="104.0679" y2="104.0679"/></g><g id="elem_wB"><rect fill="#F1F1F1" height="39.0679" style="stroke:#181818;stroke-width:0.5;" width="90" x="90" y="81"/><text fill="#000000" font-family="sans-serif" font-size="14" lengthAdjust="spacing" textLength="76" x="97" y="97.9659">Wrapper(B)</text><line style="stroke:#181818;stroke-width:0.5;" x1="91" x2="179" y1="104.0679" y2="104.0679"/></g><g id="elem_ihB"><rect fill="#F1F1F1" height="39.0679" style="stroke:#181818;stroke-width:0.5;" width="46" x="263" y="7"/><text fill="#000000" font-family="sans-serif" font-size="14" lengthAdjust="spacing" textLength="32" x="270" y="23.9659">IH(B)</text><line style="stroke:#181818;stroke-width:0.5;" x1="264" x2="308" y1="30.0679" y2="30.0679"/></g><g id="elem_bB"><rect fill="#F1F1F1" height="39.0679" style="stroke:#181818;stroke-width:0.5;" width="76" x="248" y="81"/><text fill="#000000" font-family="sans-serif" font-size="14" lengthAdjust="spacing" textLength="62" x="255" y="97.9659">Bridge(B)</text><line style="stroke:#181818;stroke-width:0.5;" x1="249" x2="323" y1="104.0679" y2="104.0679"/></g><g id="elem_I"><rect fill="#F1F1F1" height="39.0679" style="stroke:#181818;stroke-width:0.5;" width="92" x="240" y="229"/><text fill="#000000" font-family="sans-serif" font-size="14" lengthAdjust="spacing" textLength="78" x="247" y="245.9659">Init Process</text><line style="stroke:#181818;stroke-width:0.5;" x1="241" x2="331" y1="252.0679" y2="252.0679"/></g><!--link A to wB--><g id="link_A_wB"><path codeLine="48" d="M30.48,167.44 C47.05,156.73 74.0208,139.2968 98.0808,123.7468 " fill="none" id="A-to-wB" style="stroke:#2222FF;stroke-width:1.0;"/><polygon fill="#2222FF" points="103.12,120.49,93.39,122.0158,98.9207,123.204,97.7325,128.7347,103.12,120.49" style="stroke:#2222FF;stroke-width:1.0;"/></g><!--link A to ihA--><g id="link_A_ihA"><path codeLine="49" d="M30.48,174.54 C49.06,174.54 81.07,174.54 105.5,174.54 " fill="none" id="A-to-ihA" style="stroke:#181818;stroke-width:1.0;"/><polygon fill="#181818" points="111.5,174.54,102.5,170.54,106.5,174.54,102.5,178.54,111.5,174.54" style="stroke:#181818;stroke-width:1.0;"/></g><!--link ihA to wA--><g id="link_ihA_wA"><path codeLine="50" d="M158.31,174.54 C179.98,174.54 207.51,174.54 234.62,174.54 " fill="none" id="ihA-to-wA" style="stroke:#181818;stroke-width:1.0;"/><polygon fill="#181818" points="240.62,174.54,231.62,170.54,235.62,174.54,231.62,178.54,240.62,174.54" style="stroke:#181818;stroke-width:1.0;"/></g><!--link wB to bB--><g id="link_wB_bB"><path codeLine="51" d="M180.3,100.54 C201.75,100.54 221.21,100.54 241.66,100.54 " fill="none" id="wB-to-bB" style="stroke:#2222FF;stroke-width:1.0;"/><polygon fill="#2222FF" points="247.66,100.54,238.66,96.54,242.66,100.54,238.66,104.54,247.66,100.54" style="stroke:#2222FF;stroke-width:1.0;"/></g><!--link bB to B--><g id="link_bB_B"><path codeLine="52" d="M324.5,100.54 C347.95,100.54 370.5,100.54 385.72,100.54 " fill="none" id="bB-to-B" style="stroke:#2222FF;stroke-width:1.0;"/><polygon fill="#2222FF" points="391.72,100.54,382.72,96.54,386.72,100.54,382.72,104.54,391.72,100.54" style="stroke:#2222FF;stroke-width:1.0;"/></g><!--reverse link wA to B--><g id="link_wA_B"><path codeLine="54" d="M323.3116,151.2725 C347.6216,135.6925 374.89,118.22 391.55,107.55 " fill="none" id="wA-backto-B" style="stroke:#22FF22;stroke-width:1.0;"/><polygon fill="#22FF22" points="318.26,154.51,327.9957,153.0215,322.4697,151.8121,323.679,146.286,318.26,154.51" style="stroke:#22FF22;stroke-width:1.0;"/></g><!--reverse link ihB to B--><g id="link_ihB_B"><path codeLine="55" d="M314.3217,44.0373 C339.1017,59.9173 373.06,81.67 391.78,93.67 " fill="none" id="ihB-backto-B" style="stroke:#181818;stroke-width:1.0;"/><polygon fill="#181818" points="309.27,40.8,314.6893,49.0238,313.4798,43.4978,319.0058,42.2882,309.27,40.8" style="stroke:#181818;stroke-width:1.0;"/></g><!--reverse link wB to ihB--><g id="link_wB_ihB"><path codeLine="56" d="M181.6939,77.8414 C209.4439,64.0614 239.9,48.93 262.67,37.62 " fill="none" id="wB-backto-ihB" style="stroke:#181818;stroke-width:1.0;"/><polygon fill="#181818" points="176.32,80.51,186.1599,80.0898,180.7983,78.2862,182.6018,72.9246,176.32,80.51" style="stroke:#181818;stroke-width:1.0;"/></g><!--reverse link bA to wA--><g id="link_bA_wA"><path codeLine="57" d="M178.5839,227.3815 C200.3939,216.5515 222.57,205.54 244.87,194.47 " fill="none" id="bA-backto-wA" style="stroke:#22FF22;stroke-width:1.0;"/><polygon fill="#22FF22" points="173.21,230.05,183.0499,229.6299,177.6883,227.8263,179.4919,222.4646,173.21,230.05" style="stroke:#22FF22;stroke-width:1.0;"/></g><!--reverse link A to bA--><g id="link_A_bA"><path codeLine="58" d="M35.5191,184.887 C52.0891,195.597 79.06,213.03 103.12,228.58 " fill="none" id="A-backto-bA" style="stroke:#22FF22;stroke-width:1.0;"/><polygon fill="#22FF22" points="30.48,181.63,35.8673,189.8748,34.6792,184.3442,40.2099,183.1561,30.48,181.63" style="stroke:#22FF22;stroke-width:1.0;"/></g><!--reverse link bB to I--><g id="link_bB_I"><path codeLine="60" d="M242.4732,121.357 C227.9332,130.197 218.08,139.29 210,155.04 C202.08,170.46 202.08,178.62 210,194.04 C217.42,208.48 230.63,219.96 243.99,228.58 " fill="none" id="bB-backto-I" style="stroke:#FF2222;stroke-width:1.0;"/><polygon fill="#FF2222" points="247.6,118.24,237.8318,119.4976,243.3276,120.8375,241.9878,126.3334,247.6,118.24" style="stroke:#FF2222;stroke-width:1.0;"/></g><!--reverse link bA to I--><g id="link_bA_I"><path codeLine="61" d="M179.21,248.54 C199.38,248.54 218.47,248.54 239.76,248.54 " fill="none" id="bA-backto-I" style="stroke:#FF2222;stroke-width:1.0;"/><polygon fill="#FF2222" points="173.21,248.54,182.21,252.54,178.21,248.54,182.21,244.54,173.21,248.54" style="stroke:#FF2222;stroke-width:1.0;"/></g><!--SRC=[RP0n3u8m48Nt_eeBB3gmC1kJta1aStCW31Ggr11BIfF-VQz0HQjDchnyx_hkUgEyMx0QZEe72vqoihLAFndJua4IU139pJJJ9Cs17nDePd2xWqPrlGo6s8to4g0Q-3iIVo9nYyJFbnXUOjneSmIolVwfB5oDRkKyBsR968UiIdCwHL5dPvzEX8IVXUwYwHSEl-ieLaI86ZaEfuKLHPxN6I4QZ91NRXL-KX6LKNv4Q3sifDuZBRvAFVHuxVkVS_O2]--></g></svg>