<?xml version="1.0" encoding="us-ascii" standalone="no"?><svg xmlns="http://www.w3.org/2000/svg" xmlns:xlink="http://www.w3.org/1999/xlink" contentStyleType="text/css" height="582px" preserveAspectRatio="none" style="width:722px;height:582px;background:#FFFFFF;" version="1.1" viewBox="0 0 722 582" width="722px" zoomAndPan="magnify"><defs/><g><!--cluster Source--><g id="cluster_Source"><path d="M90.5,6.602 L138.5,6.602 A3.75,3.75 0 0 1 141,9.102 L148,31.6699 L678.5,31.6699 A2.5,2.5 0 0 1 681,34.1699 L681,97.172 A2.5,2.5 0 0 1 678.5,99.672 L90.5,99.672 A2.5,2.5 0 0 1 88,97.172 L88,9.102 A2.5,2.5 0 0 1 90.5,6.602 " fill="none" style="stroke:#000000;stroke-width:1.5;"/><line style="stroke:#000000;stroke-width:1.5;" x1="88" x2="148" y1="31.6699" y2="31.6699"/><text fill="#000000" font-family="sans-serif" font-size="14" font-weight="bold" lengthAdjust="spacing" textLength="47" x="92" y="23.5679">Source</text></g><!--cluster Frontend--><g id="cluster_Frontend"><path d="M52.5,131.672 L117.5,131.672 A3.75,3.75 0 0 1 120,134.172 L127,156.7399 L712.5,156.7399 A2.5,2.5 0 0 1 715,159.2399 L715,222.242 A2.5,2.5 0 0 1 712.5,224.742 L52.5,224.742 A2.5,2.5 0 0 1 50,222.242 L50,134.172 A2.5,2.5 0 0 1 52.5,131.672 " fill="none" style="stroke:#000000;stroke-width:1.5;"/><line style="stroke:#000000;stroke-width:1.5;" x1="50" x2="127" y1="156.7399" y2="156.7399"/><text fill="#000000" font-family="sans-serif" font-size="14" font-weight="bold" lengthAdjust="spacing" textLength="64" x="54" y="148.6379">Frontend</text></g><!--cluster Backend--><g id="cluster_Backend"><path d="M24.5,356.802 L84.5,356.802 A3.75,3.75 0 0 1 87,359.302 L94,381.8699 L297.5,381.8699 A2.5,2.5 0 0 1 300,384.3699 L300,447.372 A2.5,2.5 0 0 1 297.5,449.872 L24.5,449.872 A2.5,2.5 0 0 1 22,447.372 L22,359.302 A2.5,2.5 0 0 1 24.5,356.802 " fill="none" style="stroke:#000000;stroke-width:1.5;"/><line style="stroke:#000000;stroke-width:1.5;" x1="22" x2="94" y1="381.8699" y2="381.8699"/><text fill="#000000" font-family="sans-serif" font-size="14" font-weight="bold" lengthAdjust="spacing" textLength="59" x="26" y="373.7679">Backend</text></g><!--cluster Output--><g id="cluster_Output"><path d="M8.5,482.872 L59.5,482.872 A3.75,3.75 0 0 1 62,485.372 L69,507.9399 L510.5,507.9399 A2.5,2.5 0 0 1 513,510.4399 L513,573.442 A2.5,2.5 0 0 1 510.5,575.942 L8.5,575.942 A2.5,2.5 0 0 1 6,573.442 L6,485.372 A2.5,2.5 0 0 1 8.5,482.872 " fill="none" style="stroke:#000000;stroke-width:1.5;"/><line style="stroke:#000000;stroke-width:1.5;" x1="6" x2="69" y1="507.9399" y2="507.9399"/><text fill="#000000" font-family="sans-serif" font-size="14" font-weight="bold" lengthAdjust="spacing" textLength="50" x="10" y="499.8379">Output</text></g><g id="elem_NL"><rect fill="#F08080" height="39.0679" style="stroke:#181818;stroke-width:0.5;" width="252" x="104" y="44.602"/><text fill="#000000" font-family="sans-serif" font-size="14" lengthAdjust="spacing" textLength="238" x="111" y="61.5679">non-LLVM Languages (e.g. C#, Java)</text><line style="stroke:#181818;stroke-width:0.5;" x1="105" x2="355" y1="67.6699" y2="67.6699"/></g><g id="elem_LL"><rect fill="#F08080" height="39.0679" style="stroke:#181818;stroke-width:0.5;" width="275" x="390.5" y="44.602"/><text fill="#000000" font-family="sans-serif" font-size="14" lengthAdjust="spacing" textLength="261" x="397.5" y="61.5679">Clang Languages (e.g. C/C++ on Clang)</text><line style="stroke:#181818;stroke-width:0.5;" x1="391.5" x2="664.5" y1="67.6699" y2="67.6699"/></g><g id="elem_LSA"><rect fill="#F1F1F1" height="39.0679" style="stroke:#181818;stroke-width:0.5;" width="283" x="66.5" y="169.672"/><text fill="#000000" font-family="sans-serif" font-size="14" lengthAdjust="spacing" textLength="269" x="73.5" y="186.6379">Language-specific analyzer (e.g. Roslyn)</text><line style="stroke:#181818;stroke-width:0.5;" x1="67.5" x2="348.5" y1="192.7399" y2="192.7399"/></g><g id="elem_LC"><rect fill="#F1F1F1" height="39.0679" style="stroke:#181818;stroke-width:0.5;" width="314" x="385" y="169.672"/><text fill="#000000" font-family="sans-serif" font-size="14" lengthAdjust="spacing" textLength="300" x="392" y="186.6379">LLVM-based compiler with custom attributes</text><line style="stroke:#181818;stroke-width:0.5;" x1="386" x2="698" y1="192.7399" y2="192.7399"/></g><g id="elem_LSCG"><rect fill="#F1F1F1" height="39.0679" style="stroke:#181818;stroke-width:0.5;" width="245" x="38.5" y="394.802"/><text fill="#000000" font-family="sans-serif" font-size="14" lengthAdjust="spacing" textLength="231" x="45.5" y="411.7679">Language-specific code-generator</text><line style="stroke:#181818;stroke-width:0.5;" x1="39.5" x2="282.5" y1="417.8699" y2="417.8699"/></g><g id="elem_Bridge"><rect fill="#ADD8E6" height="39.0679" style="stroke:#181818;stroke-width:0.5;" width="208" x="289" y="520.872"/><text fill="#000000" font-family="sans-serif" font-size="14" lengthAdjust="spacing" textLength="194" x="296" y="537.8379">Bridge (Platform-Dependent)</text><line style="stroke:#181818;stroke-width:0.5;" x1="290" x2="496" y1="543.9399" y2="543.9399"/></g><g id="elem_Wrapper"><rect fill="#ADD8E6" height="39.0679" style="stroke:#181818;stroke-width:0.5;" width="232" x="22" y="520.872"/><text fill="#000000" font-family="sans-serif" font-size="14" lengthAdjust="spacing" textLength="218" x="29" y="537.8379">Wrapper (Language-Dependent)</text><line style="stroke:#181818;stroke-width:0.5;" x1="23" x2="253" y1="543.9399" y2="543.9399"/></g><g id="elem_IR"><rect fill="#F1F1F1" height="39.0679" style="stroke:#181818;stroke-width:0.5;" width="101" x="255.5" y="270.742"/><text fill="#000000" font-family="sans-serif" font-size="14" lengthAdjust="spacing" textLength="87" x="262.5" y="287.7079">Attributed IR</text><line style="stroke:#181818;stroke-width:0.5;" x1="256.5" x2="355.5" y1="293.8099" y2="293.8099"/></g><!--link NL to LSA--><g id="link_NL_LSA"><path codeLine="152" d="M226.61,84.092 C222.46,107.292 216.5455,140.4056 212.4155,163.5156 " fill="none" id="NL-to-LSA" style="stroke:#181818;stroke-width:1.0;"/><polygon fill="#181818" points="211.36,169.422,216.8809,161.266,212.2396,164.5,209.0057,159.8587,211.36,169.422" style="stroke:#181818;stroke-width:1.0;"/></g><!--link LSA to IR--><g id="link_LSA_IR"><path codeLine="153" d="M226.43,208.842 C243.84,226.442 265.5991,248.4377 283.0991,266.1177 " fill="none" id="LSA-to-IR" style="stroke:#181818;stroke-width:1.0;"/><polygon fill="#181818" points="287.32,270.382,283.8315,261.1716,283.8026,266.8284,278.1458,266.7995,287.32,270.382" style="stroke:#181818;stroke-width:1.0;"/></g><!--link LL to LC--><g id="link_LL_LC"><path codeLine="155" d="M530.16,84.092 C532.8,107.292 536.5516,140.3505 539.1816,163.4605 " fill="none" id="LL-to-LC" style="stroke:#181818;stroke-width:1.0;"/><polygon fill="#181818" points="539.86,169.422,542.8167,160.0274,539.2946,164.454,534.868,160.932,539.86,169.422" style="stroke:#181818;stroke-width:1.0;"/></g><!--link LC to IR--><g id="link_LC_IR"><path codeLine="156" d="M496.78,209.192 C454.88,226.772 398.4425,250.47 356.6025,268.03 " fill="none" id="LC-to-IR" style="stroke:#181818;stroke-width:1.0;"/><polygon fill="#181818" points="351.07,270.352,360.9167,270.5574,355.6804,268.417,357.8208,263.1807,351.07,270.352" style="stroke:#181818;stroke-width:1.0;"/></g><!--link IR to Bridge--><g id="link_IR_Bridge"><path codeLine="158" d="M312.54,309.922 C328.66,355.912 368.195,468.6698 384.395,514.8798 " fill="none" id="IR-to-Bridge" style="stroke:#181818;stroke-width:1.0;"/><polygon fill="#181818" points="386.38,520.542,387.1773,510.7254,384.7258,515.8235,379.6277,513.3721,386.38,520.542" style="stroke:#181818;stroke-width:1.0;"/><text fill="#000000" font-family="sans-serif" font-size="13" lengthAdjust="spacing" textLength="12" x="365" y="419.739">llc</text></g><!--link IR to LSCG--><g id="link_IR_LSCG"><path codeLine="160" d="M283.66,310.082 C256.49,332.952 215.4804,367.4783 188.1904,390.4483 " fill="none" id="IR-to-LSCG" style="stroke:#181818;stroke-width:1.0;"/><polygon fill="#181818" points="183.6,394.312,193.0614,391.5766,187.4253,391.0922,187.9098,385.4561,183.6,394.312" style="stroke:#181818;stroke-width:1.0;"/></g><!--link LSCG to Wrapper--><g id="link_LSCG_Wrapper"><path codeLine="161" d="M157.51,434.182 C153.18,457.502 146.9513,491.0821 142.6213,514.4921 " fill="none" id="LSCG-to-Wrapper" style="stroke:#181818;stroke-width:1.0;"/><polygon fill="#181818" points="141.53,520.392,147.1002,512.2696,142.4394,515.4754,139.2336,510.8146,141.53,520.392" style="stroke:#181818;stroke-width:1.0;"/></g><!--SRC=[ZL7BJiCm4BpdArRffQYat3aWjKQW8lDGAi7PSRPfmBKjFq05yUyuZbEQSY6I4tl7CpkpqOo_iGPXhRpXc7rb41vLlI9ta4ib2qgVxu4osVXmpS8KvyqSoEGSxjWxEyk1MNYWCA5jitL46IP62aG4vb_w1PdDG4c8S2z2noBVMQQJjHkZf4DPdvWRH0khaRURbWEJJEm_qQGkfR9YBvFwUZ4cXrH5nIpMmDLEjoAmFbgt1UwjKpjWpfcsyWvjJoUTeO6y6C0QLcN4L-MltMNu_iSjLpKM3Keqp2cJN9BRu-IFtcdlJfIMfgq3DdqIp6sKsHNNg4C_bAwFcl1-c4lXSSH-CKphRaG7GoVquS8HFpWAlxWehk8OmuhxBZDDPP9HSYYkohXDFYuX5uBdXtBCsBtYANNBVW00]--></g></svg>