<?xml version="1.0" encoding="us-ascii" standalone="no"?><svg xmlns="http://www.w3.org/2000/svg" xmlns:xlink="http://www.w3.org/1999/xlink" contentStyleType="text/css" height="582px" preserveAspectRatio="none" style="width:706px;height:582px;background:#FFFFFF;" version="1.1" viewBox="0 0 706 582" width="706px" zoomAndPan="magnify"><defs/><g><!--cluster Source--><g id="cluster_Source"><path d="M74.5,6.602 L122.5,6.602 A3.75,3.75 0 0 1 125,9.102 L132,31.6699 L662.5,31.6699 A2.5,2.5 0 0 1 665,34.1699 L665,97.172 A2.5,2.5 0 0 1 662.5,99.672 L74.5,99.672 A2.5,2.5 0 0 1 72,97.172 L72,9.102 A2.5,2.5 0 0 1 74.5,6.602 " fill="none" style="stroke:#000000;stroke-width:1.5;"/><line style="stroke:#000000;stroke-width:1.5;" x1="72" x2="132" y1="31.6699" y2="31.6699"/><text fill="#000000" font-family="sans-serif" font-size="14" font-weight="bold" lengthAdjust="spacing" textLength="47" x="76" y="23.5679">Source</text></g><!--cluster Frontend--><g id="cluster_Frontend"><path d="M36.5,131.672 L101.5,131.672 A3.75,3.75 0 0 1 104,134.172 L111,156.7399 L696.5,156.7399 A2.5,2.5 0 0 1 699,159.2399 L699,222.242 A2.5,2.5 0 0 1 696.5,224.742 L36.5,224.742 A2.5,2.5 0 0 1 34,222.242 L34,134.172 A2.5,2.5 0 0 1 36.5,131.672 " fill="none" style="stroke:#000000;stroke-width:1.5;"/><line style="stroke:#000000;stroke-width:1.5;" x1="34" x2="111" y1="156.7399" y2="156.7399"/><text fill="#000000" font-family="sans-serif" font-size="14" font-weight="bold" lengthAdjust="spacing" textLength="64" x="38" y="148.6379">Frontend</text></g><!--cluster Backend--><g id="cluster_Backend"><path d="M8.5,356.802 L68.5,356.802 A3.75,3.75 0 0 1 71,359.302 L78,381.8699 L281.5,381.8699 A2.5,2.5 0 0 1 284,384.3699 L284,447.372 A2.5,2.5 0 0 1 281.5,449.872 L8.5,449.872 A2.5,2.5 0 0 1 6,447.372 L6,359.302 A2.5,2.5 0 0 1 8.5,356.802 " fill="none" style="stroke:#000000;stroke-width:1.5;"/><line style="stroke:#000000;stroke-width:1.5;" x1="6" x2="78" y1="381.8699" y2="381.8699"/><text fill="#000000" font-family="sans-serif" font-size="14" font-weight="bold" lengthAdjust="spacing" textLength="59" x="10" y="373.7679">Backend</text></g><!--cluster Output--><g id="cluster_Output"><path d="M140.5,482.872 L191.5,482.872 A3.75,3.75 0 0 1 194,485.372 L201,507.9399 L334.5,507.9399 A2.5,2.5 0 0 1 337,510.4399 L337,573.442 A2.5,2.5 0 0 1 334.5,575.942 L140.5,575.942 A2.5,2.5 0 0 1 138,573.442 L138,485.372 A2.5,2.5 0 0 1 140.5,482.872 " fill="none" style="stroke:#000000;stroke-width:1.5;"/><line style="stroke:#000000;stroke-width:1.5;" x1="138" x2="201" y1="507.9399" y2="507.9399"/><text fill="#000000" font-family="sans-serif" font-size="14" font-weight="bold" lengthAdjust="spacing" textLength="50" x="142" y="499.8379">Output</text></g><g id="elem_NL"><rect fill="#F08080" height="39.0679" style="stroke:#181818;stroke-width:0.5;" width="252" x="88" y="44.602"/><text fill="#000000" font-family="sans-serif" font-size="14" lengthAdjust="spacing" textLength="238" x="95" y="61.5679">non-LLVM Languages (e.g. C#, Java)</text><line style="stroke:#181818;stroke-width:0.5;" x1="89" x2="339" y1="67.6699" y2="67.6699"/></g><g id="elem_LL"><rect fill="#F08080" height="39.0679" style="stroke:#181818;stroke-width:0.5;" width="275" x="374.5" y="44.602"/><text fill="#000000" font-family="sans-serif" font-size="14" lengthAdjust="spacing" textLength="261" x="381.5" y="61.5679">Clang Languages (e.g. C/C++ on Clang)</text><line style="stroke:#181818;stroke-width:0.5;" x1="375.5" x2="648.5" y1="67.6699" y2="67.6699"/></g><g id="elem_LSA"><rect fill="#F1F1F1" height="39.0679" style="stroke:#181818;stroke-width:0.5;" width="283" x="50.5" y="169.672"/><text fill="#000000" font-family="sans-serif" font-size="14" lengthAdjust="spacing" textLength="269" x="57.5" y="186.6379">Language-specific analyzer (e.g. Roslyn)</text><line style="stroke:#181818;stroke-width:0.5;" x1="51.5" x2="332.5" y1="192.7399" y2="192.7399"/></g><g id="elem_LC"><rect fill="#F1F1F1" height="39.0679" style="stroke:#181818;stroke-width:0.5;" width="314" x="369" y="169.672"/><text fill="#000000" font-family="sans-serif" font-size="14" lengthAdjust="spacing" textLength="300" x="376" y="186.6379">LLVM-based compiler with custom attributes</text><line style="stroke:#181818;stroke-width:0.5;" x1="370" x2="682" y1="192.7399" y2="192.7399"/></g><g id="elem_LSCG"><rect fill="#F1F1F1" height="39.0679" style="stroke:#181818;stroke-width:0.5;" width="245" x="22.5" y="394.802"/><text fill="#000000" font-family="sans-serif" font-size="14" lengthAdjust="spacing" textLength="231" x="29.5" y="411.7679">Language-specific code-generator</text><line style="stroke:#181818;stroke-width:0.5;" x1="23.5" x2="266.5" y1="417.8699" y2="417.8699"/></g><g id="elem_Bridge"><rect fill="#ADD8E6" height="39.0679" style="stroke:#181818;stroke-width:0.5;" width="59" x="262.5" y="520.872"/><text fill="#000000" font-family="sans-serif" font-size="14" lengthAdjust="spacing" textLength="45" x="269.5" y="537.8379">Bridge</text><line style="stroke:#181818;stroke-width:0.5;" x1="263.5" x2="320.5" y1="543.9399" y2="543.9399"/></g><g id="elem_Wrapper"><rect fill="#ADD8E6" height="39.0679" style="stroke:#181818;stroke-width:0.5;" width="73" x="154.5" y="520.872"/><text fill="#000000" font-family="sans-serif" font-size="14" lengthAdjust="spacing" textLength="59" x="161.5" y="537.8379">Wrapper</text><line style="stroke:#181818;stroke-width:0.5;" x1="155.5" x2="226.5" y1="543.9399" y2="543.9399"/></g><g id="elem_IR"><rect fill="#F1F1F1" height="39.0679" style="stroke:#181818;stroke-width:0.5;" width="101" x="224.5" y="270.742"/><text fill="#000000" font-family="sans-serif" font-size="14" lengthAdjust="spacing" textLength="87" x="231.5" y="287.7079">Attributed IR</text><line style="stroke:#181818;stroke-width:0.5;" x1="225.5" x2="324.5" y1="293.8099" y2="293.8099"/></g><!--link NL to LSA--><g id="link_NL_LSA"><path codeLine="152" d="M210.61,84.092 C206.46,107.292 200.5455,140.4056 196.4155,163.5156 " fill="none" id="NL-to-LSA" style="stroke:#181818;stroke-width:1.0;"/><polygon fill="#181818" points="195.36,169.422,200.8809,161.266,196.2396,164.5,193.0057,159.8587,195.36,169.422" style="stroke:#181818;stroke-width:1.0;"/></g><!--link LSA to IR--><g id="link_LSA_IR"><path codeLine="153" d="M207.61,208.842 C222.36,226.442 240.5056,248.1038 255.3256,265.7838 " fill="none" id="LSA-to-IR" style="stroke:#181818;stroke-width:1.0;"/><polygon fill="#181818" points="259.18,270.382,256.4639,260.9151,255.968,266.5501,250.3329,266.0542,259.18,270.382" style="stroke:#181818;stroke-width:1.0;"/></g><!--link LL to LC--><g id="link_LL_LC"><path codeLine="155" d="M514.16,84.092 C516.8,107.292 520.5516,140.3505 523.1816,163.4605 " fill="none" id="LL-to-LC" style="stroke:#181818;stroke-width:1.0;"/><polygon fill="#181818" points="523.86,169.422,526.8167,160.0274,523.2946,164.454,518.868,160.932,523.86,169.422" style="stroke:#181818;stroke-width:1.0;"/></g><!--link LC to IR--><g id="link_LC_IR"><path codeLine="156" d="M477.9,209.192 C433.35,226.772 373.0212,250.5896 328.5212,268.1496 " fill="none" id="LC-to-IR" style="stroke:#181818;stroke-width:1.0;"/><polygon fill="#181818" points="322.94,270.352,332.78,270.7692,327.591,268.5167,329.8435,263.3276,322.94,270.352" style="stroke:#181818;stroke-width:1.0;"/></g><!--link IR to Bridge--><g id="link_IR_Bridge"><path codeLine="158" d="M278.5,310.122 C280.44,321.322 282.72,335.832 284,348.802 C290.19,411.432 291.5458,480.0922 291.8558,514.4222 " fill="none" id="IR-to-Bridge" style="stroke:#181818;stroke-width:1.0;"/><polygon fill="#181818" points="291.91,520.422,295.8286,511.3862,291.8649,515.4222,287.8289,511.4585,291.91,520.422" style="stroke:#181818;stroke-width:1.0;"/><text fill="#000000" font-family="sans-serif" font-size="13" lengthAdjust="spacing" textLength="12" x="291" y="419.739">llc</text></g><!--link IR to LSCG--><g id="link_IR_LSCG"><path codeLine="160" d="M254.97,310.082 C230.61,332.952 194.1046,367.2355 169.6346,390.2055 " fill="none" id="IR-to-LSCG" style="stroke:#181818;stroke-width:1.0;"/><polygon fill="#181818" points="165.26,394.312,174.5595,391.0687,168.9055,390.8899,169.0843,385.2359,165.26,394.312" style="stroke:#181818;stroke-width:1.0;"/></g><!--link LSCG to Wrapper--><g id="link_LSCG_Wrapper"><path codeLine="161" d="M151.99,434.182 C160.63,457.502 173.1841,491.3562 181.8641,514.7662 " fill="none" id="LSCG-to-Wrapper" style="stroke:#181818;stroke-width:1.0;"/><polygon fill="#181818" points="183.95,520.392,184.5716,510.5628,182.2117,515.7039,177.0706,513.344,183.95,520.392" style="stroke:#181818;stroke-width:1.0;"/></g><!--SRC=[ZL5DJyCm3BttLrZT1JGwxXoGjaYWeW1I9y4vIqqNo98e7w21-E-aQJhMSI5I4iVsUtvs3EDlh4DOws0v5by5nAKthyWzb4ghYjAdUw1CTI6cEJZ3HRS0Chk0E_REpajW3XuepAZejfveo-I4WSY8_0k_9FCvQ0KfF93GASbtKPWixSPgvL6r9-96qiePvE95S62AoVqdsbobqKxkLMPVBwVWs5MrOGvRu7fdX8oe3-6tm8FpUWVCUoismQCRuAGND8ANOx25kadnklcLkuhtVzHotMBLeKBBlBPP9RazxlmnU1Fy2TFAYhR3b3-OUMuh6N2I-6oPCJWmP_iuDTQ97rTLrsauSIUxxuHcDoaeEJZh9fcvv1MKKlBou4xA-oEzShNY1m00]--></g></svg>