<?xml version="1.0" encoding="us-ascii" standalone="no"?><svg xmlns="http://www.w3.org/2000/svg" xmlns:xlink="http://www.w3.org/1999/xlink" contentStyleType="text/css" height="181px" preserveAspectRatio="none" style="width:511px;height:181px;background:#FFFFFF;" version="1.1" viewBox="0 0 511 181" width="511px" zoomAndPan="magnify"><defs/><g><!--cluster Frontend--><g id="cluster_Frontend"><path d="M195.5,6.602 L260.5,6.602 A3.75,3.75 0 0 1 263,9.102 L270,31.6699 L295.5,31.6699 A2.5,2.5 0 0 1 298,34.1699 L298,172.102 A2.5,2.5 0 0 1 295.5,174.602 L195.5,174.602 A2.5,2.5 0 0 1 193,172.102 L193,9.102 A2.5,2.5 0 0 1 195.5,6.602 " fill="none" style="stroke:#000000;stroke-width:1.5;"/><line style="stroke:#000000;stroke-width:1.5;" x1="193" x2="270" y1="31.6699" y2="31.6699"/><text fill="#000000" font-family="sans-serif" font-size="14" font-weight="bold" lengthAdjust="spacing" textLength="64" x="197" y="23.5679">Frontend</text></g><!--cluster Backend--><g id="cluster_Backend"><path d="M328.5,43.602 L388.5,43.602 A3.75,3.75 0 0 1 391,46.102 L398,68.6699 L414.5,68.6699 A2.5,2.5 0 0 1 417,71.1699 L417,135.102 A2.5,2.5 0 0 1 414.5,137.602 L328.5,137.602 A2.5,2.5 0 0 1 326,135.102 L326,46.102 A2.5,2.5 0 0 1 328.5,43.602 " fill="none" style="stroke:#000000;stroke-width:1.5;"/><line style="stroke:#000000;stroke-width:1.5;" x1="326" x2="398" y1="68.6699" y2="68.6699"/><text fill="#000000" font-family="sans-serif" font-size="14" font-weight="bold" lengthAdjust="spacing" textLength="59" x="330" y="60.5679">Backend</text></g><g id="elem_Wrapper"><rect fill="#F1F1F1" height="39.0679" style="stroke:#181818;stroke-width:0.5;" width="73" x="209" y="119.072"/><text fill="#000000" font-family="sans-serif" font-size="14" lengthAdjust="spacing" textLength="59" x="216" y="136.0379">Wrapper</text><line style="stroke:#181818;stroke-width:0.5;" x1="210" x2="281" y1="142.1399" y2="142.1399"/></g><g id="elem_IH"><rect fill="#F1F1F1" height="39.0679" style="stroke:#181818;stroke-width:0.5;" width="29" x="231" y="45.072"/><text fill="#000000" font-family="sans-serif" font-size="14" lengthAdjust="spacing" textLength="15" x="238" y="62.0379">IH</text><line style="stroke:#181818;stroke-width:0.5;" x1="232" x2="259" y1="68.1399" y2="68.1399"/></g><g id="elem_Bridge"><rect fill="#F1F1F1" height="39.0679" style="stroke:#181818;stroke-width:0.5;" width="59" x="342" y="82.072"/><text fill="#000000" font-family="sans-serif" font-size="14" lengthAdjust="spacing" textLength="45" x="349" y="99.0379">Bridge</text><line style="stroke:#181818;stroke-width:0.5;" x1="343" x2="400" y1="105.1399" y2="105.1399"/></g><g id="elem_Source"><rect fill="#F1F1F1" height="39.0679" style="stroke:#181818;stroke-width:0.5;" width="60" x="48" y="45.072"/><text fill="#000000" font-family="sans-serif" font-size="14" lengthAdjust="spacing" textLength="46" x="55" y="62.0379">Source</text><line style="stroke:#181818;stroke-width:0.5;" x1="49" x2="107" y1="68.1399" y2="68.1399"/></g><g id="elem_RT"><rect fill="#F1F1F1" height="39.0679" style="stroke:#181818;stroke-width:0.5;" width="142" x="7" y="119.072"/><text fill="#000000" font-family="sans-serif" font-size="14" lengthAdjust="spacing" textLength="128" x="14" y="136.0379">Language Runtime</text><line style="stroke:#181818;stroke-width:0.5;" x1="8" x2="148" y1="142.1399" y2="142.1399"/></g><g id="elem_Host"><rect fill="#F1F1F1" height="39.0679" style="stroke:#181818;stroke-width:0.5;" width="44" x="461" y="82.072"/><text fill="#000000" font-family="sans-serif" font-size="14" lengthAdjust="spacing" textLength="30" x="468" y="99.0379">Host</text><line style="stroke:#181818;stroke-width:0.5;" x1="462" x2="504" y1="105.1399" y2="105.1399"/></g><!--link Source to Wrapper--><g id="link_Source_Wrapper"><path codeLine="19" d="M108.21,77.662 C136.23,90.192 173.1326,106.693 203.1926,120.133 " fill="none" id="Source-to-Wrapper" style="stroke:#181818;stroke-width:1.0;"/><polygon fill="#181818" points="208.67,122.582,202.0865,115.2569,204.1055,120.5412,198.8212,122.5601,208.67,122.582" style="stroke:#181818;stroke-width:1.0;"/></g><!--link Source to IH--><g id="link_Source_IH"><path codeLine="20" d="M108.21,64.602 C144.21,64.602 197.92,64.602 224.73,64.602 " fill="none" id="Source-to-IH" style="stroke:#181818;stroke-width:1.0;"/><polygon fill="#181818" points="230.73,64.602,221.73,60.602,225.73,64.602,221.73,68.602,230.73,64.602" style="stroke:#181818;stroke-width:1.0;"/></g><!--link IH to Bridge--><g id="link_IH_Bridge"><path codeLine="22" d="M260.24,68.702 C279.79,74.532 310.3408,83.6455 335.9308,91.2855 " fill="none" id="IH-to-Bridge" style="stroke:#181818;stroke-width:1.0;"/><polygon fill="#181818" points="341.68,93.002,334.2004,86.5945,336.889,91.5716,331.9118,94.2601,341.68,93.002" style="stroke:#181818;stroke-width:1.0;"/></g><!--reverse link Bridge to Host--><g id="link_Bridge_Host"><path codeLine="24" d="M407.27,101.602 C425.9,101.602 443.75,101.602 460.69,101.602 " fill="none" id="Bridge-backto-Host" style="stroke:#2222FF;stroke-width:1.0;"/><polygon fill="#2222FF" points="401.27,101.602,410.27,105.602,406.27,101.602,410.27,97.602,401.27,101.602" style="stroke:#2222FF;stroke-width:1.0;"/></g><!--reverse link Wrapper to Bridge--><g id="link_Wrapper_Bridge"><path codeLine="25" d="M288.119,126.1846 C306.999,120.5446 324.09,115.452 341.79,110.172 " fill="none" id="Wrapper-backto-Bridge" style="stroke:#2222FF;stroke-width:1.0;"/><polygon fill="#2222FF" points="282.37,127.902,292.1384,129.1586,287.1608,126.4708,289.8485,121.4933,282.37,127.902" style="stroke:#2222FF;stroke-width:1.0;"/></g><!--reverse link RT to Wrapper--><g id="link_RT_Wrapper"><path codeLine="27" d="M155.19,138.602 C175.8,138.602 191.48,138.602 208.95,138.602 " fill="none" id="RT-backto-Wrapper" style="stroke:#2222FF;stroke-width:1.0;"/><polygon fill="#2222FF" points="149.19,138.602,158.19,142.602,154.19,138.602,158.19,134.602,149.19,138.602" style="stroke:#2222FF;stroke-width:1.0;"/></g><!--reverse link Source to RT--><g id="link_Source_RT"><path codeLine="28" d="M78,90.452 C78,101.852 78,107.252 78,118.652 " fill="none" id="Source-backto-RT" style="stroke:#2222FF;stroke-width:1.0;"/><polygon fill="#2222FF" points="78,84.452,74,93.452,78,89.452,82,93.452,78,84.452" style="stroke:#2222FF;stroke-width:1.0;"/></g><!--SRC=[NP2x3i8m34LtVuLLvYpCYA53rKfCfH83OWYj2U6HLAax8VuTzmKjNfnStnDVvK4NHlOOhBaoLZPGoTOxW5gNTsq8a-0TawiGNe1I_dmJ2nw2hciASobBuVtZOkc2BQausCfGPnk5lMz3ITCjscbdsexEMyVsIH7g1lDYcgU-OO21GQMstnGpIL90blR7SHiC7JVgk5fB9Sb93K-D-78oKNcnrFzsRLJ_PJE3vFm0]--></g></svg>