<?xml version="1.0" encoding="us-ascii" standalone="no"?><svg xmlns="http://www.w3.org/2000/svg" xmlns:xlink="http://www.w3.org/1999/xlink" contentStyleType="text/css" height="181px" preserveAspectRatio="none" style="width:493px;height:181px;background:#FFFFFF;" version="1.1" viewBox="0 0 493 181" width="493px" zoomAndPan="magnify"><defs/><g><!--cluster Frontend--><g id="cluster_Frontend"><path d="M146.5,6.602 L211.5,6.602 A3.75,3.75 0 0 1 214,9.102 L221,31.6699 L246.5,31.6699 A2.5,2.5 0 0 1 249,34.1699 L249,172.102 A2.5,2.5 0 0 1 246.5,174.602 L146.5,174.602 A2.5,2.5 0 0 1 144,172.102 L144,9.102 A2.5,2.5 0 0 1 146.5,6.602 " fill="none" style="stroke:#000000;stroke-width:1.5;"/><line style="stroke:#000000;stroke-width:1.5;" x1="144" x2="221" y1="31.6699" y2="31.6699"/><text fill="#000000" font-family="sans-serif" font-size="14" font-weight="bold" lengthAdjust="spacing" textLength="64" x="148" y="23.5679">Frontend</text></g><!--cluster Backend--><g id="cluster_Backend"><path d="M279.5,43.602 L339.5,43.602 A3.75,3.75 0 0 1 342,46.102 L349,68.6699 L396.5,68.6699 A2.5,2.5 0 0 1 399,71.1699 L399,135.102 A2.5,2.5 0 0 1 396.5,137.602 L279.5,137.602 A2.5,2.5 0 0 1 277,135.102 L277,46.102 A2.5,2.5 0 0 1 279.5,43.602 " fill="none" style="stroke:#000000;stroke-width:1.5;"/><line style="stroke:#000000;stroke-width:1.5;" x1="277" x2="349" y1="68.6699" y2="68.6699"/><text fill="#000000" font-family="sans-serif" font-size="14" font-weight="bold" lengthAdjust="spacing" textLength="59" x="281" y="60.5679">Backend</text></g><g id="elem_Wrapper"><rect fill="#F1F1F1" height="39.0679" style="stroke:#181818;stroke-width:0.5;" width="73" x="160" y="119.072"/><text fill="#000000" font-family="sans-serif" font-size="14" lengthAdjust="spacing" textLength="59" x="167" y="136.0379">Wrapper</text><line style="stroke:#181818;stroke-width:0.5;" x1="161" x2="232" y1="142.1399" y2="142.1399"/></g><g id="elem_IH"><rect fill="#F1F1F1" height="39.0679" style="stroke:#181818;stroke-width:0.5;" width="29" x="182" y="45.072"/><text fill="#000000" font-family="sans-serif" font-size="14" lengthAdjust="spacing" textLength="15" x="189" y="62.0379">IH</text><line style="stroke:#181818;stroke-width:0.5;" x1="183" x2="210" y1="68.1399" y2="68.1399"/></g><g id="elem_Bridge"><rect fill="#F1F1F1" height="39.0679" style="stroke:#181818;stroke-width:0.5;" width="90" x="293" y="82.072"/><text fill="#000000" font-family="sans-serif" font-size="14" lengthAdjust="spacing" textLength="76" x="300" y="99.0379">Header File</text><line style="stroke:#181818;stroke-width:0.5;" x1="294" x2="382" y1="105.1399" y2="105.1399"/></g><g id="elem_Source"><rect fill="#F1F1F1" height="39.0679" style="stroke:#181818;stroke-width:0.5;" width="93" x="7" y="45.072"/><text fill="#000000" font-family="sans-serif" font-size="14" lengthAdjust="spacing" textLength="79" x="14" y="62.0379">.NET library</text><line style="stroke:#181818;stroke-width:0.5;" x1="8" x2="99" y1="68.1399" y2="68.1399"/></g><g id="elem_RT"><rect fill="#F1F1F1" height="39.0679" style="stroke:#181818;stroke-width:0.5;" width="70" x="18.5" y="119.072"/><text fill="#000000" font-family="sans-serif" font-size="14" lengthAdjust="spacing" textLength="56" x="25.5" y="136.0379">CoreCLR</text><line style="stroke:#181818;stroke-width:0.5;" x1="19.5" x2="87.5" y1="142.1399" y2="142.1399"/></g><g id="elem_Host"><rect fill="#F1F1F1" height="39.0679" style="stroke:#181818;stroke-width:0.5;" width="44" x="443" y="82.072"/><text fill="#000000" font-family="sans-serif" font-size="14" lengthAdjust="spacing" textLength="30" x="450" y="99.0379">Host</text><line style="stroke:#181818;stroke-width:0.5;" x1="444" x2="486" y1="105.1399" y2="105.1399"/></g><!--link Source to Wrapper--><g id="link_Source_Wrapper"><path codeLine="112" d="M92.66,84.632 C113.54,95.582 133.9368,106.2945 154.4268,117.0445 " fill="none" id="Source-to-Wrapper" style="stroke:#181818;stroke-width:1.0;"/><polygon fill="#181818" points="159.74,119.832,153.6286,112.1086,155.3124,117.509,149.9119,119.1928,159.74,119.832" style="stroke:#181818;stroke-width:1.0;"/></g><!--link Source to IH--><g id="link_Source_IH"><path codeLine="113" d="M100.28,64.602 C128.58,64.602 156.98,64.602 175.71,64.602 " fill="none" id="Source-to-IH" style="stroke:#181818;stroke-width:1.0;"/><polygon fill="#181818" points="181.71,64.602,172.71,60.602,176.71,64.602,172.71,68.602,181.71,64.602" style="stroke:#181818;stroke-width:1.0;"/></g><!--link IH to Bridge--><g id="link_IH_Bridge"><path codeLine="115" d="M211.39,68.282 C230.2,73.272 258.8606,80.8733 286.9406,88.3233 " fill="none" id="IH-to-Bridge" style="stroke:#181818;stroke-width:1.0;"/><polygon fill="#181818" points="292.74,89.862,285.0667,83.6878,287.9072,88.5798,283.0152,91.4203,292.74,89.862" style="stroke:#181818;stroke-width:1.0;"/></g><!--reverse link Bridge to Host--><g id="link_Bridge_Host"><path codeLine="117" d="M389.42,101.602 C409.63,101.602 426.6,101.602 442.83,101.602 " fill="none" id="Bridge-backto-Host" style="stroke:#2222FF;stroke-width:1.0;"/><polygon fill="#2222FF" points="383.42,101.602,392.42,105.602,388.42,101.602,392.42,97.602,383.42,101.602" style="stroke:#2222FF;stroke-width:1.0;"/></g><!--reverse link Wrapper to Bridge--><g id="link_Wrapper_Bridge"><path codeLine="118" d="M239.2201,127.5362 C257.3101,122.7462 273.59,118.422 292.72,113.352 " fill="none" id="Wrapper-backto-Bridge" style="stroke:#2222FF;stroke-width:1.0;"/><polygon fill="#2222FF" points="233.42,129.072,243.144,130.635,238.2534,127.7922,241.0963,122.9015,233.42,129.072" style="stroke:#2222FF;stroke-width:1.0;"/></g><!--reverse link RT to Wrapper--><g id="link_RT_Wrapper"><path codeLine="120" d="M94.99,138.602 C116.52,138.602 138.16,138.602 159.89,138.602 " fill="none" id="RT-backto-Wrapper" style="stroke:#2222FF;stroke-width:1.0;"/><polygon fill="#2222FF" points="88.99,138.602,97.99,142.602,93.99,138.602,97.99,134.602,88.99,138.602" style="stroke:#2222FF;stroke-width:1.0;"/></g><!--reverse link Source to RT--><g id="link_Source_RT"><path codeLine="121" d="M53.5,90.452 C53.5,101.852 53.5,107.252 53.5,118.652 " fill="none" id="Source-backto-RT" style="stroke:#2222FF;stroke-width:1.0;"/><polygon fill="#2222FF" points="53.5,84.452,49.5,93.452,53.5,89.452,57.5,93.452,53.5,84.452" style="stroke:#2222FF;stroke-width:1.0;"/></g><!--SRC=[NP0_3u903CNtVef6vtDm9WuG2IJ60KaSZCC15Ky9Hyev6EDtzpp-27RfvRttQvkhw6BGQ6HLNWqMYYatIjS0ZSpliYGCMTU6wWBX1MXBPpSRmIFBfY6UId44xn_dsswnERM8I1R46AgA5YXRz5aL9Nsv8R7QRrEiLCQIdovoq0_EQVG3pHJi4cSbwI17kZK0NHI5s8ptJIHx7yIHU_PheUleYTDoRIiCpw8RrUDpPw2ITAx_xVA4-yn9mDxv0G00]--></g></svg>