<svg xmlns="http://www.w3.org/2000/svg" xmlns:xlink="http://www.w3.org/1999/xlink" contentStyleType="text/css" height="1191px" preserveAspectRatio="none" style="width:1244px;height:1191px;background:#FFFFFF;" version="1.1" viewBox="0 0 1244 1191" width="1244px" zoomAndPan="magnify"><defs/><g><!--class TypeKind--><g id="elem_TypeKind"><rect codeLine="5" fill="#F1F1F1" height="113.1875" id="TypeKind" rx="2.5" ry="2.5" style="stroke:#181818;stroke-width:0.5;" width="96" x="745.5" y="529"/><ellipse cx="760.5" cy="545" fill="#EB937F" rx="11" ry="11" style="stroke:#181818;stroke-width:1.0;"/><path d="M764.6094,551 L756.8906,551 L756.8906,538.6094 L764.6094,538.6094 L764.6094,540.7656 L759.3438,540.7656 L759.3438,543.4375 L764.1094,543.4375 L764.1094,545.5938 L759.3438,545.5938 L759.3438,548.8438 L764.6094,548.8438 L764.6094,551 Z " fill="#000000"/><text fill="#000000" font-family="monospace" font-size="14" lengthAdjust="spacing" textLength="64" x="774.5" y="549.8467">TypeKind</text><line style="stroke:#181818;stroke-width:0.5;" x1="746.5" x2="840.5" y1="561" y2="561"/><text fill="#000000" font-family="monospace" font-size="14" lengthAdjust="spacing" textLength="56" x="751.5" y="577.9951">Builtin</text><text fill="#000000" font-family="monospace" font-size="14" lengthAdjust="spacing" textLength="56" x="751.5" y="594.292">Pointer</text><text fill="#000000" font-family="monospace" font-size="14" lengthAdjust="spacing" textLength="64" x="751.5" y="610.5889">Function</text><text fill="#000000" font-family="monospace" font-size="14" lengthAdjust="spacing" textLength="80" x="751.5" y="626.8857">Elaborated</text><line style="stroke:#181818;stroke-width:0.5;" x1="746.5" x2="840.5" y1="634.1875" y2="634.1875"/></g><!--class BuiltinKind--><g id="elem_BuiltinKind"><rect codeLine="12" fill="#F1F1F1" height="341.3438" id="BuiltinKind" rx="2.5" ry="2.5" style="stroke:#181818;stroke-width:0.5;" width="132" x="1063.5" y="702.19"/><ellipse cx="1083.9" cy="718.19" fill="#EB937F" rx="11" ry="11" style="stroke:#181818;stroke-width:1.0;"/><path d="M1088.0094,724.19 L1080.2906,724.19 L1080.2906,711.7994 L1088.0094,711.7994 L1088.0094,713.9556 L1082.7438,713.9556 L1082.7438,716.6275 L1087.5094,716.6275 L1087.5094,718.7838 L1082.7438,718.7838 L1082.7438,722.0338 L1088.0094,722.0338 L1088.0094,724.19 Z " fill="#000000"/><text fill="#000000" font-family="monospace" font-size="14" lengthAdjust="spacing" textLength="88" x="1099.1" y="723.0367">BuiltinKind</text><line style="stroke:#181818;stroke-width:0.5;" x1="1064.5" x2="1194.5" y1="734.19" y2="734.19"/><text fill="#000000" font-family="monospace" font-size="14" lengthAdjust="spacing" textLength="120" x="1069.5" y="751.1851">None   = 0x0000</text><text fill="#000000" font-family="monospace" font-size="14" lengthAdjust="spacing" textLength="120" x="1069.5" y="767.482">Void   = 0x0001</text><text fill="#000000" font-family="monospace" font-size="14" lengthAdjust="spacing" textLength="120" x="1069.5" y="783.7789">Bool   = 0x0002</text><text fill="#000000" font-family="monospace" font-size="14" lengthAdjust="spacing" textLength="120" x="1069.5" y="800.0757">S8     = 0x0010</text><text fill="#000000" font-family="monospace" font-size="14" lengthAdjust="spacing" textLength="120" x="1069.5" y="816.3726">S16    = 0x0011</text><text fill="#000000" font-family="monospace" font-size="14" lengthAdjust="spacing" textLength="120" x="1069.5" y="832.6695">S32    = 0x0012</text><text fill="#000000" font-family="monospace" font-size="14" lengthAdjust="spacing" textLength="120" x="1069.5" y="848.9664">S64    = 0x0013</text><text fill="#000000" font-family="monospace" font-size="14" lengthAdjust="spacing" textLength="120" x="1069.5" y="865.2632">SIPtr  = 0x0014</text><text fill="#000000" font-family="monospace" font-size="14" lengthAdjust="spacing" textLength="120" x="1069.5" y="881.5601">U8     = 0x0020</text><text fill="#000000" font-family="monospace" font-size="14" lengthAdjust="spacing" textLength="120" x="1069.5" y="897.857">U16    = 0x0021</text><text fill="#000000" font-family="monospace" font-size="14" lengthAdjust="spacing" textLength="120" x="1069.5" y="914.1539">U32    = 0x0022</text><text fill="#000000" font-family="monospace" font-size="14" lengthAdjust="spacing" textLength="120" x="1069.5" y="930.4507">U64    = 0x0023</text><text fill="#000000" font-family="monospace" font-size="14" lengthAdjust="spacing" textLength="120" x="1069.5" y="946.7476">UIPtr  = 0x0024</text><text fill="#000000" font-family="monospace" font-size="14" lengthAdjust="spacing" textLength="120" x="1069.5" y="963.0445">FP16   = 0x0031</text><text fill="#000000" font-family="monospace" font-size="14" lengthAdjust="spacing" textLength="120" x="1069.5" y="979.3414">FP32   = 0x0032</text><text fill="#000000" font-family="monospace" font-size="14" lengthAdjust="spacing" textLength="120" x="1069.5" y="995.6382">FP64   = 0x0033</text><text fill="#000000" font-family="monospace" font-size="14" lengthAdjust="spacing" textLength="120" x="1069.5" y="1011.9351">String = 0x000F</text><text fill="#000000" font-family="monospace" font-size="14" lengthAdjust="spacing" textLength="120" x="1069.5" y="1028.232">Array  = 0x100F</text><line style="stroke:#181818;stroke-width:0.5;" x1="1064.5" x2="1194.5" y1="1035.5338" y2="1035.5338"/></g><!--class Constraint--><g id="elem_Constraint"><rect codeLine="33" fill="#F1F1F1" height="80.5938" id="Constraint" rx="2.5" ry="2.5" style="stroke:#181818;stroke-width:0.5;" width="116" x="363.5" y="545.3"/><ellipse cx="380.3" cy="561.3" fill="#F1F1F1" rx="11" ry="11" style="stroke:#181818;stroke-width:1.0;"/><path d="M379.7844,561.8625 Q377.925,561.1594 377.2688,560.3938 Q376.6281,559.6125 376.6281,558.3 Q376.6281,556.6125 377.7063,555.6438 Q378.7844,554.675 380.6594,554.675 Q381.5188,554.675 382.3625,554.8781 Q383.2219,555.0656 384.0656,555.4563 L384.0656,557.8469 Q383.2844,557.2844 382.4563,557.0031 Q381.6438,556.7063 380.8469,556.7063 Q379.9719,556.7063 379.4875,557.0656 Q379.0188,557.425 379.0188,558.0813 Q379.0188,558.5969 379.3625,558.9406 Q379.7063,559.2688 380.8,559.675 L381.8625,560.0813 Q383.3469,560.6281 384.05,561.5344 Q384.7688,562.4406 384.7688,563.8156 Q384.7688,565.6906 383.6594,566.6125 Q382.55,567.5344 380.3,567.5344 Q379.3781,567.5344 378.4563,567.3156 Q377.5344,567.0969 376.675,566.675 L376.675,564.1438 Q377.6438,564.8313 378.5656,565.175 Q379.4875,565.5188 380.3781,565.5188 Q381.2844,565.5188 381.7844,565.1125 Q382.2844,564.6906 382.2844,563.9563 Q382.2844,563.3938 381.9406,562.9875 Q381.6125,562.5656 380.9875,562.3156 L379.7844,561.8625 Z " fill="#000000"/><text fill="#000000" font-family="monospace" font-size="14" lengthAdjust="spacing" textLength="80" x="394.7" y="566.1467">Constraint</text><line style="stroke:#181818;stroke-width:0.5;" x1="364.5" x2="478.5" y1="577.3" y2="577.3"/><text fill="#000000" font-family="monospace" font-size="14" lengthAdjust="spacing" textLength="104" x="369.5" y="594.2951">bool Constant</text><text fill="#000000" font-family="monospace" font-size="14" lengthAdjust="spacing" textLength="104" x="369.5" y="610.592">bool Volatile</text><line style="stroke:#181818;stroke-width:0.5;" x1="364.5" x2="478.5" y1="617.8938" y2="617.8938"/></g><!--class ITypeData--><g id="elem_ITypeData"><rect codeLine="38" fill="#F1F1F1" height="48" id="ITypeData" rx="2.5" ry="2.5" style="stroke:#181818;stroke-width:0.5;" width="104" x="608.5" y="848.86"/><ellipse cx="623.5" cy="864.86" fill="#B4A7E5" rx="11" ry="11" style="stroke:#181818;stroke-width:1.0;"/><path d="M619.4219,860.6256 L619.4219,858.4694 L626.8125,858.4694 L626.8125,860.6256 L624.3438,860.6256 L624.3438,868.7038 L626.8125,868.7038 L626.8125,870.86 L619.4219,870.86 L619.4219,868.7038 L621.8906,868.7038 L621.8906,860.6256 L619.4219,860.6256 Z " fill="#000000"/><text fill="#000000" font-family="monospace" font-size="14" font-style="italic" lengthAdjust="spacing" textLength="72" x="637.5" y="869.7067">ITypeData</text><line style="stroke:#181818;stroke-width:0.5;" x1="609.5" x2="711.5" y1="880.86" y2="880.86"/><line style="stroke:#181818;stroke-width:0.5;" x1="609.5" x2="711.5" y1="888.86" y2="888.86"/></g><polygon fill="none" points="667.4333,896.86,679.7091,914.1315,666.2591,918.0171" style="stroke:#181818;stroke-width:1.0;"/><line style="stroke:#181818;stroke-width:1.0;" x1="672.9841" x2="673.5" y1="916.0743" y2="917.86"/><line style="stroke:#181818;stroke-width:1.0;" x1="664.7043" x2="668.25" y1="848.86" y2="828.62"/><!--class BuiltinTypeData--><g id="elem_BuiltinTypeData"><rect codeLine="40" fill="#F1F1F1" height="64.2969" id="BuiltinTypeData" rx="2.5" ry="2.5" style="stroke:#181818;stroke-width:0.5;" width="152" x="1024.5" y="1111.83"/><ellipse cx="1039.5" cy="1127.83" fill="#F1F1F1" rx="11" ry="11" style="stroke:#181818;stroke-width:1.0;"/><path d="M1038.9844,1128.3925 Q1037.125,1127.6894 1036.4688,1126.9238 Q1035.8281,1126.1425 1035.8281,1124.83 Q1035.8281,1123.1425 1036.9063,1122.1738 Q1037.9844,1121.205 1039.8594,1121.205 Q1040.7188,1121.205 1041.5625,1121.4081 Q1042.4219,1121.5956 1043.2656,1121.9863 L1043.2656,1124.3769 Q1042.4844,1123.8144 1041.6563,1123.5331 Q1040.8438,1123.2363 1040.0469,1123.2363 Q1039.1719,1123.2363 1038.6875,1123.5956 Q1038.2188,1123.955 1038.2188,1124.6113 Q1038.2188,1125.1269 1038.5625,1125.4706 Q1038.9063,1125.7988 1040,1126.205 L1041.0625,1126.6113 Q1042.5469,1127.1581 1043.25,1128.0644 Q1043.9688,1128.9706 1043.9688,1130.3456 Q1043.9688,1132.2206 1042.8594,1133.1425 Q1041.75,1134.0644 1039.5,1134.0644 Q1038.5781,1134.0644 1037.6563,1133.8456 Q1036.7344,1133.6269 1035.875,1133.205 L1035.875,1130.6738 Q1036.8438,1131.3613 1037.7656,1131.705 Q1038.6875,1132.0488 1039.5781,1132.0488 Q1040.4844,1132.0488 1040.9844,1131.6425 Q1041.4844,1131.2206 1041.4844,1130.4863 Q1041.4844,1129.9238 1041.1406,1129.5175 Q1040.8125,1129.0956 1040.1875,1128.8456 L1038.9844,1128.3925 Z " fill="#000000"/><text fill="#000000" font-family="monospace" font-size="14" lengthAdjust="spacing" textLength="120" x="1053.5" y="1132.6767">BuiltinTypeData</text><line style="stroke:#181818;stroke-width:0.5;" x1="1025.5" x2="1175.5" y1="1143.83" y2="1143.83"/><text fill="#000000" font-family="monospace" font-size="14" lengthAdjust="spacing" textLength="128" x="1030.5" y="1160.8251">BuiltinKind Kind</text><line style="stroke:#181818;stroke-width:0.5;" x1="1025.5" x2="1175.5" y1="1168.1269" y2="1168.1269"/></g><!--class PointerTypeData--><g id="elem_PointerTypeData"><rect codeLine="45" fill="#F1F1F1" height="64.2969" id="PointerTypeData" rx="2.5" ry="2.5" style="stroke:#181818;stroke-width:0.5;" width="152" x="363.5" y="1111.68"/><ellipse cx="378.5" cy="1127.68" fill="#F1F1F1" rx="11" ry="11" style="stroke:#181818;stroke-width:1.0;"/><path d="M377.9844,1128.2425 Q376.125,1127.5394 375.4688,1126.7738 Q374.8281,1125.9925 374.8281,1124.68 Q374.8281,1122.9925 375.9063,1122.0238 Q376.9844,1121.055 378.8594,1121.055 Q379.7188,1121.055 380.5625,1121.2581 Q381.4219,1121.4456 382.2656,1121.8363 L382.2656,1124.2269 Q381.4844,1123.6644 380.6563,1123.3831 Q379.8438,1123.0863 379.0469,1123.0863 Q378.1719,1123.0863 377.6875,1123.4456 Q377.2188,1123.805 377.2188,1124.4613 Q377.2188,1124.9769 377.5625,1125.3206 Q377.9063,1125.6488 379,1126.055 L380.0625,1126.4613 Q381.5469,1127.0081 382.25,1127.9144 Q382.9688,1128.8206 382.9688,1130.1956 Q382.9688,1132.0706 381.8594,1132.9925 Q380.75,1133.9144 378.5,1133.9144 Q377.5781,1133.9144 376.6563,1133.6956 Q375.7344,1133.4769 374.875,1133.055 L374.875,1130.5238 Q375.8438,1131.2113 376.7656,1131.555 Q377.6875,1131.8988 378.5781,1131.8988 Q379.4844,1131.8988 379.9844,1131.4925 Q380.4844,1131.0706 380.4844,1130.3363 Q380.4844,1129.7738 380.1406,1129.3675 Q379.8125,1128.9456 379.1875,1128.6956 L377.9844,1128.2425 Z " fill="#000000"/><text fill="#000000" font-family="monospace" font-size="14" lengthAdjust="spacing" textLength="120" x="392.5" y="1132.5267">PointerTypeData</text><line style="stroke:#181818;stroke-width:0.5;" x1="364.5" x2="514.5" y1="1143.68" y2="1143.68"/><text fill="#000000" font-family="monospace" font-size="14" lengthAdjust="spacing" textLength="80" x="369.5" y="1160.6751">Type* Next</text><line style="stroke:#181818;stroke-width:0.5;" x1="364.5" x2="514.5" y1="1167.9769" y2="1167.9769"/></g><!--class FunctionTypeData--><g id="elem_FunctionTypeData"><rect codeLine="49" fill="#F1F1F1" height="80.5938" id="FunctionTypeData" rx="2.5" ry="2.5" style="stroke:#181818;stroke-width:0.5;" width="220" x="550.5" y="1103.54"/><ellipse cx="592.5" cy="1119.54" fill="#F1F1F1" rx="11" ry="11" style="stroke:#181818;stroke-width:1.0;"/><path d="M591.9844,1120.1025 Q590.125,1119.3994 589.4688,1118.6338 Q588.8281,1117.8525 588.8281,1116.54 Q588.8281,1114.8525 589.9063,1113.8838 Q590.9844,1112.915 592.8594,1112.915 Q593.7188,1112.915 594.5625,1113.1181 Q595.4219,1113.3056 596.2656,1113.6963 L596.2656,1116.0869 Q595.4844,1115.5244 594.6563,1115.2431 Q593.8438,1114.9463 593.0469,1114.9463 Q592.1719,1114.9463 591.6875,1115.3056 Q591.2188,1115.665 591.2188,1116.3213 Q591.2188,1116.8369 591.5625,1117.1806 Q591.9063,1117.5088 593,1117.915 L594.0625,1118.3213 Q595.5469,1118.8681 596.25,1119.7744 Q596.9688,1120.6806 596.9688,1122.0556 Q596.9688,1123.9306 595.8594,1124.8525 Q594.75,1125.7744 592.5,1125.7744 Q591.5781,1125.7744 590.6563,1125.5556 Q589.7344,1125.3369 588.875,1124.915 L588.875,1122.3838 Q589.8438,1123.0713 590.7656,1123.415 Q591.6875,1123.7588 592.5781,1123.7588 Q593.4844,1123.7588 593.9844,1123.3525 Q594.4844,1122.9306 594.4844,1122.1963 Q594.4844,1121.6338 594.1406,1121.2275 Q593.8125,1120.8056 593.1875,1120.5556 L591.9844,1120.1025 Z " fill="#000000"/><text fill="#000000" font-family="monospace" font-size="14" lengthAdjust="spacing" textLength="128" x="612.5" y="1124.3867">FunctionTypeData</text><line style="stroke:#181818;stroke-width:0.5;" x1="551.5" x2="769.5" y1="1135.54" y2="1135.54"/><text fill="#000000" font-family="monospace" font-size="14" lengthAdjust="spacing" textLength="176" x="556.5" y="1152.5351">Type*           Return</text><text fill="#000000" font-family="monospace" font-size="14" lengthAdjust="spacing" textLength="208" x="556.5" y="1168.832">ParameterDecl[] Parameters</text><line style="stroke:#181818;stroke-width:0.5;" x1="551.5" x2="769.5" y1="1176.1338" y2="1176.1338"/></g><!--class ElaboratedTypeData--><g id="elem_ElaboratedTypeData"><rect codeLine="54" fill="#F1F1F1" height="80.5938" id="ElaboratedTypeData" rx="2.5" ry="2.5" style="stroke:#181818;stroke-width:0.5;" width="176" x="805.5" y="1103.54"/><ellipse cx="820.5" cy="1119.54" fill="#F1F1F1" rx="11" ry="11" style="stroke:#181818;stroke-width:1.0;"/><path d="M819.9844,1120.1025 Q818.125,1119.3994 817.4688,1118.6338 Q816.8281,1117.8525 816.8281,1116.54 Q816.8281,1114.8525 817.9063,1113.8838 Q818.9844,1112.915 820.8594,1112.915 Q821.7188,1112.915 822.5625,1113.1181 Q823.4219,1113.3056 824.2656,1113.6963 L824.2656,1116.0869 Q823.4844,1115.5244 822.6563,1115.2431 Q821.8438,1114.9463 821.0469,1114.9463 Q820.1719,1114.9463 819.6875,1115.3056 Q819.2188,1115.665 819.2188,1116.3213 Q819.2188,1116.8369 819.5625,1117.1806 Q819.9063,1117.5088 821,1117.915 L822.0625,1118.3213 Q823.5469,1118.8681 824.25,1119.7744 Q824.9688,1120.6806 824.9688,1122.0556 Q824.9688,1123.9306 823.8594,1124.8525 Q822.75,1125.7744 820.5,1125.7744 Q819.5781,1125.7744 818.6563,1125.5556 Q817.7344,1125.3369 816.875,1124.915 L816.875,1122.3838 Q817.8438,1123.0713 818.7656,1123.415 Q819.6875,1123.7588 820.5781,1123.7588 Q821.4844,1123.7588 821.9844,1123.3525 Q822.4844,1122.9306 822.4844,1122.1963 Q822.4844,1121.6338 822.1406,1121.2275 Q821.8125,1120.8056 821.1875,1120.5556 L819.9844,1120.1025 Z " fill="#000000"/><text fill="#000000" font-family="monospace" font-size="14" lengthAdjust="spacing" textLength="144" x="834.5" y="1124.3867">ElaboratedTypeData</text><line style="stroke:#181818;stroke-width:0.5;" x1="806.5" x2="980.5" y1="1135.54" y2="1135.54"/><text fill="#000000" font-family="monospace" font-size="14" lengthAdjust="spacing" textLength="88" x="811.5" y="1152.5351">uint64 Size</text><text fill="#000000" font-family="monospace" font-size="14" lengthAdjust="spacing" textLength="96" x="811.5" y="1168.832">uint64 Align</text><line style="stroke:#181818;stroke-width:0.5;" x1="806.5" x2="980.5" y1="1176.1338" y2="1176.1338"/></g><!--class Type--><g id="elem_Type"><rect codeLine="63" fill="#F1F1F1" height="96.8906" id="Type" rx="2.5" ry="2.5" style="stroke:#181818;stroke-width:0.5;" width="180" x="522.5" y="537.6"/><ellipse cx="592.25" cy="553.6" fill="#F1F1F1" rx="11" ry="11" style="stroke:#181818;stroke-width:1.0;"/><path d="M591.7344,554.1625 Q589.875,553.4594 589.2188,552.6938 Q588.5781,551.9125 588.5781,550.6 Q588.5781,548.9125 589.6563,547.9438 Q590.7344,546.975 592.6094,546.975 Q593.4688,546.975 594.3125,547.1781 Q595.1719,547.3656 596.0156,547.7563 L596.0156,550.1469 Q595.2344,549.5844 594.4063,549.3031 Q593.5938,549.0063 592.7969,549.0063 Q591.9219,549.0063 591.4375,549.3656 Q590.9688,549.725 590.9688,550.3813 Q590.9688,550.8969 591.3125,551.2406 Q591.6563,551.5688 592.75,551.975 L593.8125,552.3813 Q595.2969,552.9281 596,553.8344 Q596.7188,554.7406 596.7188,556.1156 Q596.7188,557.9906 595.6094,558.9125 Q594.5,559.8344 592.25,559.8344 Q591.3281,559.8344 590.4063,559.6156 Q589.4844,559.3969 588.625,558.975 L588.625,556.4438 Q589.5938,557.1313 590.5156,557.475 Q591.4375,557.8188 592.3281,557.8188 Q593.2344,557.8188 593.7344,557.4125 Q594.2344,556.9906 594.2344,556.2563 Q594.2344,555.6938 593.8906,555.2875 Q593.5625,554.8656 592.9375,554.6156 L591.7344,554.1625 Z " fill="#000000"/><text fill="#000000" font-family="monospace" font-size="14" lengthAdjust="spacing" textLength="32" x="612.75" y="558.4467">Type</text><line style="stroke:#181818;stroke-width:0.5;" x1="523.5" x2="701.5" y1="569.6" y2="569.6"/><text fill="#000000" font-family="monospace" font-size="14" lengthAdjust="spacing" textLength="168" x="528.5" y="586.5951">Constraint Constraint</text><text fill="#000000" font-family="monospace" font-size="14" lengthAdjust="spacing" textLength="120" x="528.5" y="602.892">TypeKind   Kind</text><text fill="#000000" font-family="monospace" font-size="14" lengthAdjust="spacing" textLength="120" x="528.5" y="619.1889">ITypeData* Data</text><line style="stroke:#181818;stroke-width:0.5;" x1="523.5" x2="701.5" y1="626.4906" y2="626.4906"/></g><!--class Literal--><g id="elem_Literal"><rect codeLine="74" fill="#F1F1F1" height="80.5938" id="Literal" rx="2.5" ry="2.5" style="stroke:#181818;stroke-width:0.5;" width="140" x="1097.5" y="360.5"/><ellipse cx="1135.9" cy="376.5" fill="#F1F1F1" rx="11" ry="11" style="stroke:#181818;stroke-width:1.0;"/><path d="M1135.3844,377.0625 Q1133.525,376.3594 1132.8688,375.5938 Q1132.2281,374.8125 1132.2281,373.5 Q1132.2281,371.8125 1133.3063,370.8438 Q1134.3844,369.875 1136.2594,369.875 Q1137.1188,369.875 1137.9625,370.0781 Q1138.8219,370.2656 1139.6656,370.6563 L1139.6656,373.0469 Q1138.8844,372.4844 1138.0563,372.2031 Q1137.2438,371.9063 1136.4469,371.9063 Q1135.5719,371.9063 1135.0875,372.2656 Q1134.6188,372.625 1134.6188,373.2813 Q1134.6188,373.7969 1134.9625,374.1406 Q1135.3063,374.4688 1136.4,374.875 L1137.4625,375.2813 Q1138.9469,375.8281 1139.65,376.7344 Q1140.3688,377.6406 1140.3688,379.0156 Q1140.3688,380.8906 1139.2594,381.8125 Q1138.15,382.7344 1135.9,382.7344 Q1134.9781,382.7344 1134.0563,382.5156 Q1133.1344,382.2969 1132.275,381.875 L1132.275,379.3438 Q1133.2438,380.0313 1134.1656,380.375 Q1135.0875,380.7188 1135.9781,380.7188 Q1136.8844,380.7188 1137.3844,380.3125 Q1137.8844,379.8906 1137.8844,379.1563 Q1137.8844,378.5938 1137.5406,378.1875 Q1137.2125,377.7656 1136.5875,377.5156 L1135.3844,377.0625 Z " fill="#000000"/><text fill="#000000" font-family="monospace" font-size="14" lengthAdjust="spacing" textLength="56" x="1155.1" y="381.3467">Literal</text><line style="stroke:#181818;stroke-width:0.5;" x1="1098.5" x2="1236.5" y1="392.5" y2="392.5"/><text fill="#000000" font-family="monospace" font-size="14" lengthAdjust="spacing" textLength="128" x="1103.5" y="409.4951">BuiltinKind Kind</text><text fill="#000000" font-family="monospace" font-size="14" lengthAdjust="spacing" textLength="128" x="1103.5" y="425.792">void*       Data</text><line style="stroke:#181818;stroke-width:0.5;" x1="1098.5" x2="1236.5" y1="433.0938" y2="433.0938"/></g><!--class ParameterDecl--><g id="elem_ParameterDecl"><rect codeLine="80" fill="#F1F1F1" height="96.8906" id="ParameterDecl" rx="2.5" ry="2.5" style="stroke:#181818;stroke-width:0.5;" width="136" x="910.5" y="352.5"/><ellipse cx="925.5" cy="368.5" fill="#F1F1F1" rx="11" ry="11" style="stroke:#181818;stroke-width:1.0;"/><path d="M924.9844,369.0625 Q923.125,368.3594 922.4688,367.5938 Q921.8281,366.8125 921.8281,365.5 Q921.8281,363.8125 922.9063,362.8438 Q923.9844,361.875 925.8594,361.875 Q926.7188,361.875 927.5625,362.0781 Q928.4219,362.2656 929.2656,362.6563 L929.2656,365.0469 Q928.4844,364.4844 927.6563,364.2031 Q926.8438,363.9063 926.0469,363.9063 Q925.1719,363.9063 924.6875,364.2656 Q924.2188,364.625 924.2188,365.2813 Q924.2188,365.7969 924.5625,366.1406 Q924.9063,366.4688 926,366.875 L927.0625,367.2813 Q928.5469,367.8281 929.25,368.7344 Q929.9688,369.6406 929.9688,371.0156 Q929.9688,372.8906 928.8594,373.8125 Q927.75,374.7344 925.5,374.7344 Q924.5781,374.7344 923.6563,374.5156 Q922.7344,374.2969 921.875,373.875 L921.875,371.3438 Q922.8438,372.0313 923.7656,372.375 Q924.6875,372.7188 925.5781,372.7188 Q926.4844,372.7188 926.9844,372.3125 Q927.4844,371.8906 927.4844,371.1563 Q927.4844,370.5938 927.1406,370.1875 Q926.8125,369.7656 926.1875,369.5156 L924.9844,369.0625 Z " fill="#000000"/><text fill="#000000" font-family="monospace" font-size="14" lengthAdjust="spacing" textLength="104" x="939.5" y="373.3467">ParameterDecl</text><line style="stroke:#181818;stroke-width:0.5;" x1="911.5" x2="1045.5" y1="384.5" y2="384.5"/><text fill="#000000" font-family="monospace" font-size="14" lengthAdjust="spacing" textLength="96" x="916.5" y="401.4951">string  Name</text><text fill="#000000" font-family="monospace" font-size="14" lengthAdjust="spacing" textLength="96" x="916.5" y="417.792">Type*   Type</text><text fill="#000000" font-family="monospace" font-size="14" lengthAdjust="spacing" textLength="120" x="916.5" y="434.0889">Literal Default</text><line style="stroke:#181818;stroke-width:0.5;" x1="911.5" x2="1045.5" y1="441.3906" y2="441.3906"/></g><g id="elem_GMN27"><path d="M856,175.81 L856,231.2084 A0,0 0 0 0 856,231.2084 L974.5,231.2084 L978.5,348.53 L982.5,231.2084 L1101,231.2084 A0,0 0 0 0 1101,231.2084 L1101,185.81 L1091,175.81 L856,175.81 A0,0 0 0 0 856,175.81 " fill="#FEFFDD" style="stroke:#181818;stroke-width:0.5;"/><path d="M1091,175.81 L1091,185.81 L1101,185.81 L1091,175.81 " fill="#FEFFDD" style="stroke:#181818;stroke-width:0.5;"/><text fill="#000000" font-family="monospace" font-size="13" lengthAdjust="spacing" textLength="200" x="862" y="192.8769">Default.Data will be None</text><text fill="#000000" font-family="monospace" font-size="13" lengthAdjust="spacing" textLength="224" x="862" y="208.0097">if there is no default value</text><text fill="#000000" font-family="monospace" font-size="13" lengthAdjust="spacing" textLength="104" x="862" y="223.1425">for parameter</text></g><!--class IOwner--><g id="elem_IOwner"><rect codeLine="94" fill="#F1F1F1" height="48" id="IOwner" rx="2.5" ry="2.5" style="stroke:#181818;stroke-width:0.5;" width="80" x="534.5" y="7"/><ellipse cx="549.5" cy="23" fill="#B4A7E5" rx="11" ry="11" style="stroke:#181818;stroke-width:1.0;"/><path d="M545.4219,18.7656 L545.4219,16.6094 L552.8125,16.6094 L552.8125,18.7656 L550.3438,18.7656 L550.3438,26.8438 L552.8125,26.8438 L552.8125,29 L545.4219,29 L545.4219,26.8438 L547.8906,26.8438 L547.8906,18.7656 L545.4219,18.7656 Z " fill="#000000"/><text fill="#000000" font-family="monospace" font-size="14" font-style="italic" lengthAdjust="spacing" textLength="48" x="563.5" y="27.8467">IOwner</text><line style="stroke:#181818;stroke-width:0.5;" x1="535.5" x2="613.5" y1="39" y2="39"/><line style="stroke:#181818;stroke-width:0.5;" x1="535.5" x2="613.5" y1="47" y2="47"/></g><polygon fill="none" points="568.6333,55,570.6841,76.0902,557.0845,72.7658" style="stroke:#181818;stroke-width:1.0;"/><line style="stroke:#181818;stroke-width:1.0;" x1="563.8843" x2="563.5" y1="74.428" y2="76"/><line style="stroke:#181818;stroke-width:1.0;" x1="603.2457" x2="632.2156" y1="55" y2="79.1871"/><line style="stroke:#181818;stroke-width:1.0;" x1="540.0964" x2="509.4331" y1="55" y2="76.3907"/><line style="stroke:#181818;stroke-width:1.0;" x1="609.1283" x2="639.5372" y1="55" y2="76.0756"/><!--class NamespaceDecl--><g id="elem_NamespaceDecl"><rect codeLine="96" fill="#F1F1F1" height="129.4844" id="NamespaceDecl" rx="2.5" ry="2.5" style="stroke:#181818;stroke-width:0.5;" width="252" x="448.5" y="139"/><ellipse cx="518.25" cy="155" fill="#F1F1F1" rx="11" ry="11" style="stroke:#181818;stroke-width:1.0;"/><path d="M517.7344,155.5625 Q515.875,154.8594 515.2188,154.0938 Q514.5781,153.3125 514.5781,152 Q514.5781,150.3125 515.6563,149.3438 Q516.7344,148.375 518.6094,148.375 Q519.4688,148.375 520.3125,148.5781 Q521.1719,148.7656 522.0156,149.1563 L522.0156,151.5469 Q521.2344,150.9844 520.4063,150.7031 Q519.5938,150.4063 518.7969,150.4063 Q517.9219,150.4063 517.4375,150.7656 Q516.9688,151.125 516.9688,151.7813 Q516.9688,152.2969 517.3125,152.6406 Q517.6563,152.9688 518.75,153.375 L519.8125,153.7813 Q521.2969,154.3281 522,155.2344 Q522.7188,156.1406 522.7188,157.5156 Q522.7188,159.3906 521.6094,160.3125 Q520.5,161.2344 518.25,161.2344 Q517.3281,161.2344 516.4063,161.0156 Q515.4844,160.7969 514.625,160.375 L514.625,157.8438 Q515.5938,158.5313 516.5156,158.875 Q517.4375,159.2188 518.3281,159.2188 Q519.2344,159.2188 519.7344,158.8125 Q520.2344,158.3906 520.2344,157.6563 Q520.2344,157.0938 519.8906,156.6875 Q519.5625,156.2656 518.9375,156.0156 L517.7344,155.5625 Z " fill="#000000"/><text fill="#000000" font-family="monospace" font-size="14" lengthAdjust="spacing" textLength="104" x="538.75" y="159.8467">NamespaceDecl</text><line style="stroke:#181818;stroke-width:0.5;" x1="449.5" x2="699.5" y1="171" y2="171"/><text fill="#000000" font-family="monospace" font-size="14" lengthAdjust="spacing" textLength="168" x="454.5" y="187.9951">string           Name</text><text fill="#000000" font-family="monospace" font-size="14" lengthAdjust="spacing" textLength="176" x="454.5" y="204.292">TypeDecl*[]      Types</text><text fill="#000000" font-family="monospace" font-size="14" lengthAdjust="spacing" textLength="208" x="454.5" y="220.5889">FunctionDecl*[]  Functions</text><text fill="#000000" font-family="monospace" font-size="14" lengthAdjust="spacing" textLength="240" x="454.5" y="236.8857">NamespaceDecl*[] NamespaceDecl</text><text fill="#000000" font-family="monospace" font-size="14" lengthAdjust="spacing" textLength="176" x="454.5" y="253.1826">IOwner*          Owner</text><line style="stroke:#181818;stroke-width:0.5;" x1="449.5" x2="699.5" y1="260.4844" y2="260.4844"/></g><!--class TypeDecl--><g id="elem_TypeDecl"><rect codeLine="106" fill="#F1F1F1" height="129.4844" id="TypeDecl" rx="2.5" ry="2.5" style="stroke:#181818;stroke-width:0.5;" width="220" x="277.5" y="336"/><ellipse cx="351.25" cy="352" fill="#F1F1F1" rx="11" ry="11" style="stroke:#181818;stroke-width:1.0;"/><path d="M350.7344,352.5625 Q348.875,351.8594 348.2188,351.0938 Q347.5781,350.3125 347.5781,349 Q347.5781,347.3125 348.6563,346.3438 Q349.7344,345.375 351.6094,345.375 Q352.4688,345.375 353.3125,345.5781 Q354.1719,345.7656 355.0156,346.1563 L355.0156,348.5469 Q354.2344,347.9844 353.4063,347.7031 Q352.5938,347.4063 351.7969,347.4063 Q350.9219,347.4063 350.4375,347.7656 Q349.9688,348.125 349.9688,348.7813 Q349.9688,349.2969 350.3125,349.6406 Q350.6563,349.9688 351.75,350.375 L352.8125,350.7813 Q354.2969,351.3281 355,352.2344 Q355.7188,353.1406 355.7188,354.5156 Q355.7188,356.3906 354.6094,357.3125 Q353.5,358.2344 351.25,358.2344 Q350.3281,358.2344 349.4063,358.0156 Q348.4844,357.7969 347.625,357.375 L347.625,354.8438 Q348.5938,355.5313 349.5156,355.875 Q350.4375,356.2188 351.3281,356.2188 Q352.2344,356.2188 352.7344,355.8125 Q353.2344,355.3906 353.2344,354.6563 Q353.2344,354.0938 352.8906,353.6875 Q352.5625,353.2656 351.9375,353.0156 L350.7344,352.5625 Z " fill="#000000"/><text fill="#000000" font-family="monospace" font-size="14" lengthAdjust="spacing" textLength="64" x="371.75" y="356.8467">TypeDecl</text><line style="stroke:#181818;stroke-width:0.5;" x1="278.5" x2="496.5" y1="368" y2="368"/><text fill="#000000" font-family="monospace" font-size="14" lengthAdjust="spacing" textLength="160" x="283.5" y="384.9951">string          Name</text><text fill="#000000" font-family="monospace" font-size="14" lengthAdjust="spacing" textLength="160" x="283.5" y="401.292">Type*           Type</text><text fill="#000000" font-family="monospace" font-size="14" lengthAdjust="spacing" textLength="184" x="283.5" y="417.5889">FunctionDecl*[] Methods</text><text fill="#000000" font-family="monospace" font-size="14" lengthAdjust="spacing" textLength="208" x="283.5" y="433.8857">PropertyDecl*[] Properties</text><text fill="#000000" font-family="monospace" font-size="14" lengthAdjust="spacing" textLength="168" x="283.5" y="450.1826">IOwner*         Owner</text><line style="stroke:#181818;stroke-width:0.5;" x1="278.5" x2="496.5" y1="457.4844" y2="457.4844"/></g><!--class DeclRef--><g id="elem_DeclRef"><rect codeLine="116" fill="#F1F1F1" height="96.8906" id="DeclRef" rx="2.5" ry="2.5" style="stroke:#181818;stroke-width:0.5;" width="148" x="719.5" y="352.06"/><ellipse cx="761.5" cy="368.06" fill="#F1F1F1" rx="11" ry="11" style="stroke:#181818;stroke-width:1.0;"/><path d="M760.9844,368.6225 Q759.125,367.9194 758.4688,367.1538 Q757.8281,366.3725 757.8281,365.06 Q757.8281,363.3725 758.9063,362.4038 Q759.9844,361.435 761.8594,361.435 Q762.7188,361.435 763.5625,361.6381 Q764.4219,361.8256 765.2656,362.2163 L765.2656,364.6069 Q764.4844,364.0444 763.6563,363.7631 Q762.8438,363.4663 762.0469,363.4663 Q761.1719,363.4663 760.6875,363.8256 Q760.2188,364.185 760.2188,364.8413 Q760.2188,365.3569 760.5625,365.7006 Q760.9063,366.0288 762,366.435 L763.0625,366.8413 Q764.5469,367.3881 765.25,368.2944 Q765.9688,369.2006 765.9688,370.5756 Q765.9688,372.4506 764.8594,373.3725 Q763.75,374.2944 761.5,374.2944 Q760.5781,374.2944 759.6563,374.0756 Q758.7344,373.8569 757.875,373.435 L757.875,370.9038 Q758.8438,371.5913 759.7656,371.935 Q760.6875,372.2788 761.5781,372.2788 Q762.4844,372.2788 762.9844,371.8725 Q763.4844,371.4506 763.4844,370.7163 Q763.4844,370.1538 763.1406,369.7475 Q762.8125,369.3256 762.1875,369.0756 L760.9844,368.6225 Z " fill="#000000"/><text fill="#000000" font-family="monospace" font-size="14" lengthAdjust="spacing" textLength="56" x="781.5" y="372.9067">DeclRef</text><line style="stroke:#181818;stroke-width:0.5;" x1="720.5" x2="866.5" y1="384.06" y2="384.06"/><text fill="#000000" font-family="monospace" font-size="14" lengthAdjust="spacing" textLength="88" x="725.5" y="401.0551">string Name</text><text fill="#000000" font-family="monospace" font-size="14" lengthAdjust="spacing" textLength="136" x="725.5" y="417.352">string ActualName</text><text fill="#000000" font-family="monospace" font-size="14" lengthAdjust="spacing" textLength="120" x="725.5" y="433.6489">string Assembly</text><line style="stroke:#181818;stroke-width:0.5;" x1="720.5" x2="866.5" y1="440.9506" y2="440.9506"/></g><g id="elem_GMN41"><path d="M876,557.9 L876,613.2984 A0,0 0 0 0 876,613.2984 L1097,613.2984 A0,0 0 0 0 1097,613.2984 L1097,567.9 L1087,557.9 L961.87,557.9 L843.96,449.37 L953.87,557.9 L876,557.9 A0,0 0 0 0 876,557.9 " fill="#FEFFDD" style="stroke:#181818;stroke-width:0.5;"/><path d="M1087,557.9 L1087,567.9 L1097,567.9 L1087,557.9 " fill="#FEFFDD" style="stroke:#181818;stroke-width:0.5;"/><text fill="#000000" font-family="monospace" font-size="13" lengthAdjust="spacing" textLength="168" x="882" y="574.9669">A field 'Assembly' is</text><text fill="#000000" font-family="monospace" font-size="13" lengthAdjust="spacing" textLength="176" x="882" y="590.0997">real library file name</text><text fill="#000000" font-family="monospace" font-size="13" lengthAdjust="spacing" textLength="200" x="882" y="605.2325">such as 'A.so' or 'A.dll'</text></g><!--class FunctionDecl--><g id="elem_FunctionDecl"><rect codeLine="127" fill="#F1F1F1" height="96.8906" id="FunctionDecl" rx="2.5" ry="2.5" style="stroke:#181818;stroke-width:0.5;" width="128" x="548.5" y="352.5"/><ellipse cx="563.5" cy="368.5" fill="#F1F1F1" rx="11" ry="11" style="stroke:#181818;stroke-width:1.0;"/><path d="M562.9844,369.0625 Q561.125,368.3594 560.4688,367.5938 Q559.8281,366.8125 559.8281,365.5 Q559.8281,363.8125 560.9063,362.8438 Q561.9844,361.875 563.8594,361.875 Q564.7188,361.875 565.5625,362.0781 Q566.4219,362.2656 567.2656,362.6563 L567.2656,365.0469 Q566.4844,364.4844 565.6563,364.2031 Q564.8438,363.9063 564.0469,363.9063 Q563.1719,363.9063 562.6875,364.2656 Q562.2188,364.625 562.2188,365.2813 Q562.2188,365.7969 562.5625,366.1406 Q562.9063,366.4688 564,366.875 L565.0625,367.2813 Q566.5469,367.8281 567.25,368.7344 Q567.9688,369.6406 567.9688,371.0156 Q567.9688,372.8906 566.8594,373.8125 Q565.75,374.7344 563.5,374.7344 Q562.5781,374.7344 561.6563,374.5156 Q560.7344,374.2969 559.875,373.875 L559.875,371.3438 Q560.8438,372.0313 561.7656,372.375 Q562.6875,372.7188 563.5781,372.7188 Q564.4844,372.7188 564.9844,372.3125 Q565.4844,371.8906 565.4844,371.1563 Q565.4844,370.5938 565.1406,370.1875 Q564.8125,369.7656 564.1875,369.5156 L562.9844,369.0625 Z " fill="#000000"/><text fill="#000000" font-family="monospace" font-size="14" lengthAdjust="spacing" textLength="96" x="577.5" y="373.3467">FunctionDecl</text><line style="stroke:#181818;stroke-width:0.5;" x1="549.5" x2="675.5" y1="384.5" y2="384.5"/><text fill="#000000" font-family="monospace" font-size="14" lengthAdjust="spacing" textLength="88" x="554.5" y="401.4951">DeclRef Ref</text><text fill="#000000" font-family="monospace" font-size="14" lengthAdjust="spacing" textLength="96" x="554.5" y="417.792">Type*   Type</text><text fill="#000000" font-family="monospace" font-size="14" lengthAdjust="spacing" textLength="104" x="554.5" y="434.0889">IOwner* Owner</text><line style="stroke:#181818;stroke-width:0.5;" x1="549.5" x2="675.5" y1="441.3906" y2="441.3906"/></g><!--class PropertyDecl--><g id="elem_PropertyDecl"><rect codeLine="137" fill="#F1F1F1" height="96.8906" id="PropertyDecl" rx="2.5" ry="2.5" style="stroke:#181818;stroke-width:0.5;" width="172" x="62.5" y="352.06"/><ellipse cx="97.3" cy="368.06" fill="#F1F1F1" rx="11" ry="11" style="stroke:#181818;stroke-width:1.0;"/><path d="M96.7844,368.6225 Q94.925,367.9194 94.2688,367.1538 Q93.6281,366.3725 93.6281,365.06 Q93.6281,363.3725 94.7063,362.4038 Q95.7844,361.435 97.6594,361.435 Q98.5188,361.435 99.3625,361.6381 Q100.2219,361.8256 101.0656,362.2163 L101.0656,364.6069 Q100.2844,364.0444 99.4563,363.7631 Q98.6438,363.4663 97.8469,363.4663 Q96.9719,363.4663 96.4875,363.8256 Q96.0188,364.185 96.0188,364.8413 Q96.0188,365.3569 96.3625,365.7006 Q96.7063,366.0288 97.8,366.435 L98.8625,366.8413 Q100.3469,367.3881 101.05,368.2944 Q101.7688,369.2006 101.7688,370.5756 Q101.7688,372.4506 100.6594,373.3725 Q99.55,374.2944 97.3,374.2944 Q96.3781,374.2944 95.4563,374.0756 Q94.5344,373.8569 93.675,373.435 L93.675,370.9038 Q94.6438,371.5913 95.5656,371.935 Q96.4875,372.2788 97.3781,372.2788 Q98.2844,372.2788 98.7844,371.8725 Q99.2844,371.4506 99.2844,370.7163 Q99.2844,370.1538 98.9406,369.7475 Q98.6125,369.3256 97.9875,369.0756 L96.7844,368.6225 Z " fill="#000000"/><text fill="#000000" font-family="monospace" font-size="14" lengthAdjust="spacing" textLength="96" x="115.7" y="372.9067">PropertyDecl</text><line style="stroke:#181818;stroke-width:0.5;" x1="63.5" x2="233.5" y1="384.06" y2="384.06"/><text fill="#000000" font-family="monospace" font-size="14" lengthAdjust="spacing" textLength="88" x="68.5" y="401.0551">string Name</text><text fill="#000000" font-family="monospace" font-size="14" lengthAdjust="spacing" textLength="160" x="68.5" y="417.352">FunctionDecl* Getter</text><text fill="#000000" font-family="monospace" font-size="14" lengthAdjust="spacing" textLength="160" x="68.5" y="433.6489">FunctionDecl* Setter</text><line style="stroke:#181818;stroke-width:0.5;" x1="63.5" x2="233.5" y1="440.9506" y2="440.9506"/></g><g id="elem_GMN50"><path d="M6,557.9 L6,613.2984 A0,0 0 0 0 6,613.2984 L291,613.2984 A0,0 0 0 0 291,613.2984 L291,567.9 L281,557.9 L152.5,557.9 L148.5,449.13 L144.5,557.9 L6,557.9 A0,0 0 0 0 6,557.9 " fill="#FEFFDD" style="stroke:#181818;stroke-width:0.5;"/><path d="M281,557.9 L281,567.9 L291,567.9 L281,557.9 " fill="#FEFFDD" style="stroke:#181818;stroke-width:0.5;"/><text fill="#000000" font-family="monospace" font-size="13" lengthAdjust="spacing" textLength="192" x="12" y="574.9669">A property is just sugar</text><text fill="#000000" font-family="monospace" font-size="13" lengthAdjust="spacing" textLength="208" x="12" y="590.0997">for getter/setter methods.</text><text fill="#000000" font-family="monospace" font-size="13" lengthAdjust="spacing" textLength="264" x="12" y="605.2325">There is no 'Actual Name' things.</text></g><!--reverse link ITypeData to BuiltinTypeData--><g id="link_ITypeData_BuiltinTypeData"><path d="M673.5,917.86 C673.5,917.86 914.31,1044.74 1034.25,1107.93 " fill="none" id="ITypeData-backto-BuiltinTypeData" style="stroke:#181818;stroke-width:1.0;"/></g><!--link BuiltinKind to BuiltinTypeData--><g id="link_BuiltinKind_BuiltinTypeData"><path codeLine="43" d="M1163.66,1043.9 C1170.95,1080.19 1176.5,1107.83 1176.5,1107.83 C1176.5,1107.83 1177.375,1149.8313 1177.375,1149.8313 " fill="none" id="BuiltinKind-to-BuiltinTypeData" style="stroke:#181818;stroke-width:1.0;stroke-dasharray:7.0,7.0;"/><polygon fill="#181818" points="1177.5,1155.83,1181.3117,1146.7486,1177.3959,1150.8311,1173.3134,1146.9153,1177.5,1155.83" style="stroke:#181818;stroke-width:1.0;"/></g><!--reverse link ITypeData to PointerTypeData--><g id="link_ITypeData_PointerTypeData"><path d="M673.5,917.86 C673.5,917.86 536.33,1049.74 472.04,1111.55 " fill="none" id="ITypeData-backto-PointerTypeData" style="stroke:#181818;stroke-width:1.0;"/></g><!--reverse link ITypeData to FunctionTypeData--><g id="link_ITypeData_FunctionTypeData"><path d="M673.5,917.86 C673.5,917.86 666.53,1038.55 662.79,1103.13 " fill="none" id="ITypeData-backto-FunctionTypeData" style="stroke:#181818;stroke-width:1.0;"/></g><!--reverse link ITypeData to ElaboratedTypeData--><g id="link_ITypeData_ElaboratedTypeData"><path d="M673.5,917.86 C673.5,917.86 791.52,1038.55 854.67,1103.13 " fill="none" id="ITypeData-backto-ElaboratedTypeData" style="stroke:#181818;stroke-width:1.0;"/></g><!--reverse link PointerTypeData to BuiltinTypeData--><!--reverse link FunctionTypeData to BuiltinTypeData--><!--reverse link ElaboratedTypeData to BuiltinTypeData--><!--link Constraint to Type--><g id="link_Constraint_Type"><path codeLine="69" d="M479.8,583.28 C501.7,582.4 515.5049,581.8415 515.5049,581.8415 " fill="none" id="Constraint-to-Type" style="stroke:#181818;stroke-width:1.0;stroke-dasharray:7.0,7.0;"/><polygon fill="#181818" points="521.5,581.6,512.3463,577.9655,516.5041,581.8013,512.6683,585.9591,521.5,581.6" style="stroke:#181818;stroke-width:1.0;"/></g><!--reverse link Type to TypeKind--><g id="link_Type_TypeKind"><path codeLine="70" d="M703.5,603.6 C703.5,611.73 723.88,607.23 745.13,604.71 " fill="none" id="Type-backto-TypeKind" style="stroke:#181818;stroke-width:1.0;stroke-dasharray:7.0,7.0;"/><polygon fill="#181818" points="703.5,597.6,699.5,606.6,703.5,602.6,707.5,606.6,703.5,597.6" style="stroke:#181818;stroke-width:1.0;"/></g><!--reverse link Type to ITypeData--><g id="link_Type_ITypeData"><path codeLine="71" d="M703.2502,619.5948 C703.2502,619.5948 702.5,637.6 702.5,637.6 C702.5,637.6 680.39,760.93 668.25,828.62 " fill="none" id="Type-backto-ITypeData" style="stroke:#181818;stroke-width:1.0;stroke-dasharray:7.0,7.0;"/><polygon fill="#181818" points="703.5,613.6,699.1288,622.4257,703.2918,618.5957,707.1219,622.7587,703.5,613.6" style="stroke:#181818;stroke-width:1.0;"/></g><!--reverse link Literal to BuiltinKind--><g id="link_Literal_BuiltinKind"><path codeLine="78" d="M1096.65,410.4981 C1096.65,410.4981 1097.5,444.5 1097.5,444.5 C1097.5,444.5 1114.5,529 1114.5,529 C1114.5,529 1118.29,615.73 1122.07,701.94 " fill="none" id="Literal-backto-BuiltinKind" style="stroke:#181818;stroke-width:1.0;stroke-dasharray:7.0,7.0;"/><polygon fill="#181818" points="1096.5,404.5,1092.7262,413.5972,1096.625,409.4984,1100.7237,413.3972,1096.5,404.5" style="stroke:#181818;stroke-width:1.0;"/></g><!--reverse link ParameterDecl to Type--><g id="link_ParameterDecl_Type"><path codeLine="91" d="M903.6346,455.8449 C890.4246,465.4349 885.5,469 885.5,469 C885.5,469 728.5,529 728.5,529 C728.5,529 721.25,532.48 710.37,537.69 " fill="none" id="ParameterDecl-backto-Type" style="stroke:#181818;stroke-width:1.0;stroke-dasharray:7.0,7.0;"/><polygon fill="#181818" points="908.49,452.32,898.8569,454.3704,904.4438,455.2574,903.5568,460.8443,908.49,452.32" style="stroke:#181818;stroke-width:1.0;"/></g><!--link ParameterDecl to Literal--><g id="link_ParameterDecl_Literal"><path codeLine="92" d="M1047.5,428.5 C1047.5,435.34 1060.852,435.9467 1083.882,431.8667 " fill="none" id="ParameterDecl-to-Literal" style="stroke:#181818;stroke-width:1.0;stroke-dasharray:7.0,7.0;"/><polygon fill="#181818" points="1089.79,430.82,1080.2302,428.4513,1084.8667,431.6922,1081.6258,436.3287,1089.79,430.82" style="stroke:#181818;stroke-width:1.0;"/></g><!--reverse link IOwner to NamespaceDecl--><g id="link_IOwner_NamespaceDecl"><path codeLine="103" d="M563.5,76 C563.5,76 566.02,104.97 568.65,135.18 " fill="none" id="IOwner-backto-NamespaceDecl" style="stroke:#181818;stroke-width:1.0;"/></g><!--reverse link IOwner to NamespaceDecl--><g id="link_IOwner_NamespaceDecl"><path codeLine="104" d="M632.2156,79.1871 C666.6556,107.3371 700.5,135 700.5,135 C700.5,135 701.5,248.5 701.5,248.5 " fill="none" id="IOwner-backto-NamespaceDecl-1" style="stroke:#181818;stroke-width:1.0;stroke-dasharray:7.0,7.0;"/><polygon fill="#181818" points="627.57,75.39,632.007,84.1828,631.4413,78.5543,637.0698,77.9887,627.57,75.39" style="stroke:#181818;stroke-width:1.0;"/></g><!--reverse link IOwner to TypeDecl--><g id="link_IOwner_TypeDecl"><path codeLine="113" d="M563.5,76 C563.5,76 361.5,135 361.5,135 C361.5,135 361.5,272 361.5,272 C361.5,272 367.5,301.44 373.74,332.02 " fill="none" id="IOwner-backto-TypeDecl" style="stroke:#181818;stroke-width:1.0;"/></g><!--reverse link IOwner to TypeDecl--><g id="link_IOwner_TypeDecl"><path codeLine="114" d="M509.4331,76.3907 C467.3231,105.1107 423.5,135 423.5,135 C423.5,135 423.5,272 423.5,272 C423.5,272 497.5,332 497.5,332 C497.5,332 498.5,445.5 498.5,445.5 " fill="none" id="IOwner-backto-TypeDecl-1" style="stroke:#181818;stroke-width:1.0;stroke-dasharray:7.0,7.0;"/><polygon fill="#181818" points="514.39,73.01,504.7009,74.7765,510.2593,75.8273,509.2085,81.3857,514.39,73.01" style="stroke:#181818;stroke-width:1.0;"/></g><!--reverse link IOwner to FunctionDecl--><g id="link_IOwner_FunctionDecl"><path codeLine="132" d="M639.5372,76.0756 C682.0272,104.8656 726.5,135 726.5,135 C726.5,135 726.5,272 726.5,272 C726.5,272 701.5,332 701.5,332 C701.5,332 677.5,428.5 677.5,428.5 " fill="none" id="IOwner-backto-FunctionDecl" style="stroke:#181818;stroke-width:1.0;stroke-dasharray:7.0,7.0;"/><polygon fill="#181818" points="634.57,72.71,639.777,81.0699,638.7093,75.5147,644.2645,74.447,634.57,72.71" style="stroke:#181818;stroke-width:1.0;"/></g><!--reverse link FunctionDecl to DeclRef--><g id="link_FunctionDecl_DeclRef"><path codeLine="134" d="M677.5,402.5 C677.5,409.41 696.48,408.17 719.02,410.25 " fill="none" id="FunctionDecl-backto-DeclRef" style="stroke:#181818;stroke-width:1.0;stroke-dasharray:7.0,7.0;"/><polygon fill="#181818" points="677.5,396.5,673.5,405.5,677.5,401.5,681.5,405.5,677.5,396.5" style="stroke:#181818;stroke-width:1.0;"/></g><!--link DeclRef to ParameterDecl--><!--reverse link TypeDecl to FunctionDecl--><g id="link_TypeDecl_FunctionDecl"><path codeLine="148" d="M498.5,424.5 C498.5,431.54 517.87,421.61 540.58,420.41 " fill="none" id="TypeDecl-backto-FunctionDecl" style="stroke:#181818;stroke-width:1.0;"/><polygon fill="#181818" points="498.5,412.5,494.5,418.5,498.5,424.5,502.5,418.5,498.5,412.5" style="stroke:#181818;stroke-width:1.0;"/></g><!--link PropertyDecl to TypeDecl--><g id="link_PropertyDecl_TypeDecl"><path codeLine="149" d="M234.92,419.34 C257.89,424.4 264.781,425.9183 264.781,425.9183 " fill="none" id="PropertyDecl-to-TypeDecl" style="stroke:#181818;stroke-width:1.0;"/><polygon fill="#181818" points="276.5,428.5,271.5011,423.3028,264.781,425.9183,269.7799,431.1155,276.5,428.5" style="stroke:#181818;stroke-width:1.0;"/></g><!--reverse link TypeDecl to Type--><g id="link_TypeDecl_Type"><path codeLine="151" d="M500.4321,401.1804 C500.4321,401.1804 523.5,469 523.5,469 C523.5,469 549.55,502.84 573.46,533.9 " fill="none" id="TypeDecl-backto-Type" style="stroke:#181818;stroke-width:1.0;stroke-dasharray:7.0,7.0;"/><polygon fill="#181818" points="498.5,395.5,497.6112,405.3087,500.1101,400.2337,505.1851,402.7325,498.5,395.5" style="stroke:#181818;stroke-width:1.0;"/></g><!--reverse link FunctionDecl to Type--><g id="link_FunctionDecl_Type"><path codeLine="152" d="M677.35,418.4981 C677.35,418.4981 676.5,452.5 676.5,452.5 C676.5,452.5 655.11,496.65 637.06,533.91 " fill="none" id="FunctionDecl-backto-Type" style="stroke:#181818;stroke-width:1.0;stroke-dasharray:7.0,7.0;"/><polygon fill="#181818" points="677.5,412.5,673.2763,421.3972,677.375,417.4984,681.2738,421.5972,677.5,412.5" style="stroke:#181818;stroke-width:1.0;"/></g><!--reverse link NamespaceDecl to TypeDecl--><g id="link_NamespaceDecl_TypeDecl"><path codeLine="154" d="M445.7841,204.2494 C445.7841,204.2494 425.08,273.62 407.65,332.02 " fill="none" id="NamespaceDecl-backto-TypeDecl" style="stroke:#181818;stroke-width:1.0;stroke-dasharray:7.0,7.0;"/><polygon fill="#181818" points="447.5,198.5,441.0931,205.9801,446.07,203.2912,448.759,208.2681,447.5,198.5" style="stroke:#181818;stroke-width:1.0;"/></g><!--reverse link NamespaceDecl to FunctionDecl--><g id="link_NamespaceDecl_FunctionDecl"><path codeLine="155" d="M701.3938,221.4991 C701.3938,221.4991 700.5,272 700.5,272 C700.5,272 672.07,313.19 647.53,348.75 " fill="none" id="NamespaceDecl-backto-FunctionDecl" style="stroke:#181818;stroke-width:1.0;stroke-dasharray:7.0,7.0;"/><polygon fill="#181818" points="701.5,215.5,697.3414,224.4278,701.4115,220.4992,705.3401,224.5694,701.5,215.5" style="stroke:#181818;stroke-width:1.0;"/></g><!--link TypeDecl to ParameterDecl--><!--link TypeDecl to Literal--><!--SRC=[ZLRVRzis47xtNt5l1W9OYvMYA8pi8LkM8LYR1itSbw8Fj4NRt2XIeAYcNjV_VKVoI95oZOKFblZTyNv-FBd_MwYE6TQ258hROyUXq_BeDhC-oMxvZWtItcbb7rZBeTLAzntRyYPJsXizTFVgm8smJ6qvrBCPLqCBVwBLFuHguDiCSFqo26c5yk-FMYZBZN-_6zJM2Xq4lqcsqOPPzF2TpD2vpDA3LXmVFyFbrqjS7lkeHJDYo-1HQpbYjSUUthXVmfQN4C3bwmmCXv-kwWoZmwzVPTXLmEuVhKdOAu-jSoTr272T-wY3ZtNkemu-rhcFElXOvpxguEFkqHiCsDMIC6-Gi9emRv0mYjaQeVQnC7SUkp667OFUqc5O_jwQOMlXLwtmZM77gFuRLrUFCcL7vAEMp0h9tL7VtXqo1UuT3MwPPV1jD4azJIBHTfAtNDa-ryzfuzllVj3wvFHgvONNrT1LkNhoHcnxYJUtlO07_jLc1OWCVRc1SNtWTZ14UdTTE0PooxVoq-TntsU-nWlm4cy39eRjVHB_y7n_8yLUEQFJp75TLvyEeccu-cp4_c2hQIzc9zc-uCmFelxVCp5Z1r0w6TF6rrHMtsK8971OAiO5U8EOhqDMgypCTINv3frdve8EKOPYY-P9I0aq-bbLevjP2lcjmA8oUOwX3lo2yoZoWAAZKydt6RBcB24FVRYlu8PmmJBtz42CY2OsUbFQSh2w0xqhRNfzqgjyfiz2IjZmC5UzMEp0ua3d87fG6fgW3L-O78A_dJRGHQiufnjm_f1mHVGkHnzY32-ser33UbFK-TXu_wpGSgoAozn_UNvGbRIAyZZ52xnb486- -DeaSGI2kF3Zv0KGQESZo-vuYFJxB0ZW-j-58yvYSZHAiII5OBKgCusndqdoX09n9IfCCtp7xK4t8Rr7epjkx37AQ2-eEDFKJZDBuUNvH6oQYiC-y5sPIKg0zZTREp1vWlOzRpVo68cyqTRgrd6PZ8Pl5km4bmtCe_eS2UibXYFRfDWOPewe93cev67O7e3rUAZgzHoGoFZMI3dFQ3mP_5a_OaunX9ER66iuhHtMAJUNQbM2pdIQIZ7Lyb8jubnrLscHbDByo5fyfl85G-1tRgT_nOBWAGXEEf1xe3Pq1BbvyTVGMopodfaqAVRUqa-zVq0R25c5-cLZPXwuu0ETum32e55hxCh8C-8qN2nygHP5v9dUo6zK3VKgeizK_MSe3QooAwLiDhc_VhWK5s6gaMRC2Gt62CQ-Kahbq3whHgFrFm00]--></g></svg>